<?xml version="1.0" standalone="no"?><!DOCTYPE svg PUBLIC "-//W3C//DTD SVG 1.1//EN" "http://www.w3.org/Graphics/SVG/1.1/DTD/svg11.dtd"><svg t="1592471425757" class="icon" viewBox="0 0 1024 1024" version="1.1" xmlns="http://www.w3.org/2000/svg" p-id="24071" xmlns:xlink="http://www.w3.org/1999/xlink" width="48" height="48"><defs><style type="text/css"></style></defs><path d="M512 512m-512 0a512 512 0 1 0 1024 0 512 512 0 1 0-1024 0Z" fill="#ff976a" p-id="24072" data-spm-anchor-id="a313x.7781069.0.i19" class="selected"></path><path d="M512 832c-24.576 0-62.037333 3.84-85.333333 0l-170.666667 85.333333v-170.666666c-87.722667-61.568-128-149.930667-128-256 0-185.557333 171.904-341.333333 384-341.333334s384 155.776 384 341.333334-171.904 341.333333-384 341.333333z m0-597.333333c-172.8 0-298.666667 107.904-298.666667 256 0 90.88 47.317333 164.821333 128 213.333333v85.333333l85.333334-42.666666h85.333333c172.8 0 298.666667-107.861333 298.666667-256 0-148.096-125.866667-256-298.666667-256z m170.581333 320.128a64.042667 64.042667 0 1 1 0-128.085334 64.042667 64.042667 0 0 1 0 128.085334z m-170.496 0A64.042667 64.042667 0 1 1 512 426.709333a64.042667 64.042667 0 0 1 0.085333 128.085334z m-170.666666 0A64.042667 64.042667 0 1 1 341.333333 426.709333a64.042667 64.042667 0 0 1 0.085334 128.085334z" fill="#FFFFFF" p-id="24073"></path></svg>