<?xml version="1.0" standalone="no"?><!DOCTYPE svg PUBLIC "-//W3C//DTD SVG 1.1//EN" "http://www.w3.org/Graphics/SVG/1.1/DTD/svg11.dtd"><svg t="1592887220257" class="icon" viewBox="0 0 1024 1024" version="1.1" xmlns="http://www.w3.org/2000/svg" p-id="12730" data-spm-anchor-id="a313x.7781069.0.i5" xmlns:xlink="http://www.w3.org/1999/xlink" width="48" height="48"><defs><style type="text/css"></style></defs><path d="M430.5 108.1c-168 0-285.5 122.6-295.7 250.5-6.4 80.2 26.4 137.2 107.5 188.9l-4.9 99.2 96.6-55.6c22.3 4.2 72.4 6.7 96.4 6.7 163.3 0 268.9-116.5 268.9-244.8 0.1-128.4-135.1-244.9-268.8-244.9zM255.8 389.6c-22.3 0-40.3-16.4-40.3-36.7 0-20.2 18-36.7 40.3-36.7 22.3 0 40.3 16.4 40.3 36.7 0 20.3-18.1 36.7-40.3 36.7z m161.3 0c-22.3 0-40.3-16.4-40.3-36.7 0-20.2 18.1-36.7 40.3-36.7 22.3 0 40.3 16.4 40.3 36.7 0 20.3-18 36.7-40.3 36.7z m161.3 0c-22.3 0-40.3-16.4-40.3-36.7 0-20.2 18.1-36.7 40.3-36.7 22.3 0 40.3 16.4 40.3 36.7 0 20.3-18 36.7-40.3 36.7z" fill="#8CF6FB" p-id="12731" data-spm-anchor-id="a313x.7781069.0.i4" class=""></path><path d="M746.5 405.1c0-148.2-143-268.3-285-268.3-170.7 0-320.8 120.1-320.8 268.3 0 85.9 32.9 158.7 95 211.2v133.8l133.9-77c18.5 3 72.5 6.2 91.9 6.2 170.5 0.1 285-126 285-274.2zM364.3 637.7l-93.1 53.7v-95.6c-57.9-46.7-95-109-95-187.7 0-123.8 137-236.1 285.4-236.1 118.1 0 249.5 112.3 249.5 236.1S605.8 644.2 461.6 644.2c-21.2 0-77.6-2.4-97.3-6.5z" fill="#5aa6ff" p-id="12732" data-spm-anchor-id="a313x.7781069.0.i2" class=""></path><path d="M792.8 352.4c9.4 21.3 11.8 50 9.7 64.5 32 37.2 51.1 83 51.1 132.7 0 78.6-47.3 147.7-118.7 187.7v83.6l-93.1-41.7c-19.7 4.1-40.2 6.5-61.4 6.5-61.5 0-106.3-30.3-150.9-60.8-12.9 1-14 1.7-27.2 1.7-9.5 0-18.7-0.7-28-1.2 56.5 54.9 114.7 89.7 206.1 89.7 19.5 0 38.4-1.8 56.9-4.7l133.1 81.4V757.9c72-49.1 118.6-125.4 118.6-211.2 0-76.6-37.1-145.4-96.2-194.3z" fill="#ff976a" p-id="12733" data-spm-anchor-id="a313x.7781069.0.i3" class=""></path></svg>