<?xml version="1.0" standalone="no"?><!DOCTYPE svg PUBLIC "-//W3C//DTD SVG 1.1//EN" "http://www.w3.org/Graphics/SVG/1.1/DTD/svg11.dtd"><svg t="1592471939422" class="icon" viewBox="0 0 1024 1024" version="1.1" xmlns="http://www.w3.org/2000/svg" p-id="41761" data-spm-anchor-id="a313x.7781069.0.i90" xmlns:xlink="http://www.w3.org/1999/xlink" width="48" height="48"><defs><style type="text/css"></style></defs><path d="M879 440.77c-0.44-14.46-6.58-28.68-15.1-40.34-0.9-1.23-1.82-2.45-2.77-3.62a67 67 0 0 0-11.35-11.09 57.58 57.58 0 0 0-6-4l-9.12-5.27-16.13-9.31-27.79-16-15.46-8.93-30.79-17.78-10.46-6-14.48-8.43-13.13-7.58-29.12-16.84-14.13-8.16-16.46-9.5-14.13-8.16-26.78-15.47-11.8-6.8-27.46-15.85-10.13-5.85L543 208l-25.13-14.51L304.15 70.13l-2.3-1.33c-7.58-4.32-17.1-7-25.15-2.32-2.85 1.64-5.68 3.3-8.53 5L161.3 133.54l-6.09 3.54h0.06c-6.33 3.62-10.27 11.38-10.27 22.4-0.06 22.11 15.63 49.3 34.88 60.41L722.24 533c9.77 5.64 18.65 6.09 25 2.28l-0.16 0.11 3.82-2.22 24.34-14.14 15.46-9 27.79-16.15 16.13-9.37 15.13-8.79 14.13-8.21 4.14-2.4a23.54 23.54 0 0 0 2.67-1.75c4.43-3.45 6.78-8.83 7.74-14.24a41.13 41.13 0 0 0 0.57-8.35z m-130.41 93.67c0.2-0.15 0.41-0.29 0.61-0.45z m-38.69 79.69c-0.88-1.42-1.82-2.82-2.79-4.2a76.31 76.31 0 0 0-8.44-10.08 61.12 61.12 0 0 0-10.94-8.73l-1-0.65-1.49-0.86-8.4-4.85-7.94-4.59-33.94-19.6-9.44-5.45-10.44-6-10.94-6.32-25.94-15-8.94-5.16-8.44-4.87-10.94-6.32-30.44-17.58-8.54-4.87-10.44-6-10.94-6.32-10.44-6-31.94-18.44-8.95-5.24-135.13-78-1.59-0.91c-7.53-4.2-16.88-6.67-24.82-2.09l-117.72 68.41-3.72 2.16h0.06C148.94 440.18 145 447.94 145 459c-0.06 22.12 15.63 49.31 34.88 60.42l384.89 222.19c9.82 5.67 18.73 6.09 25.13 2.22l-0.25 0.16 3.82-2.22c0.65 0 4.56-1.94 10.6-5.18 3.13-1.68 6.83-3.7 10.94-6 3.25-1.8 6.75-3.77 10.44-5.85l9.44-5.36c10.93-6.24 22.78-13.11 33.94-19.7l7.94-4.71c3.81-2.27 7.48-4.48 10.94-6.58 4-2.4 7.64-4.67 10.94-6.74s6.06-3.83 8.44-5.41c2.65-1.75 4.74-3.21 6.12-4.28 4.43-3.45 6.78-8.83 7.74-14.24a41.18 41.18 0 0 0 0.56-8.41c-0.36-12.44-5.09-24.68-11.61-35.18zM580.92 856.14a65.49 65.49 0 0 0-2.4-10 78.49 78.49 0 0 0-3.81-9.56c-0.2-0.42-0.41-0.82-0.62-1.24a84.37 84.37 0 0 0-11.84-18c-1-1.17-2.06-2.33-3.15-3.44s-2.08-2-3.17-3l-0.46-0.4c-0.74-0.63-1.49-1.25-2.26-1.84a74.71 74.71 0 0 0-8.67-5.81l-1.44-0.83-1-0.57-2-1.15-1.55-0.9-1.33-0.77-3.35-1.93-38.29-22.11-1-0.6-6.58-3.75-2.89-1.67-7-4.07-2.3-1.33-6.49-3.75-6.5-3.75-1.55-0.89-7.3-4.21-6.11-3.57-1.43-0.83-12.92-7.46-2.72-1.57-11.91-6.88-8-4.65-3.46-2-2.09-1.21-6.55-3.78-6.55-3.78-7.3-4.21-8.71-5-14.82-8.56-5.76-3.33-1.21-0.7-5.59-3.23-2.08-1.2-5-2.87-4.11-2.37-2.65-1.52-3.53-2-2.52-1.45-4.36-2.52-1.82-1-0.11-0.06-16.55-9.56-0.33-0.19-0.75-0.43-0.14-0.08-0.45-0.26-1.54-0.88q-1.08-0.61-2.17-1.18l-0.17-0.09q-1.09-0.57-2.2-1.1-0.85-0.4-1.71-0.76l-0.14-0.06c-0.52-0.21-1-0.41-1.58-0.6l-0.3-0.11c-0.49-0.17-1-0.32-1.5-0.47l-0.4-0.12c-0.62-0.17-1.25-0.32-1.89-0.44a11.3 11.3 0 0 0-0.81-0.12l-0.43-0.07q-0.88-0.12-1.76-0.18t-1.75 0a20.46 20.46 0 0 0-3.49 0.35q-0.75 0.14-1.49 0.34h-0.17c-0.44 0.12-0.88 0.26-1.31 0.41l-0.53 0.21c-0.32 0.13-0.65 0.25-1 0.4-0.51 0.24-1 0.49-1.52 0.78l-4.07 2.37-0.84 0.49-5.84 3.39-0.43 0.25-4.36 2.53-0.25 0.15-6.3 3.66-4.5 2.62-2.3 1.33-3.69 2-4.47 2.6-9 5.26-2.6 1.51-5.19 3-25.3 14.7-8 4.68-4.44 2.57-1.91 1.11-1.78 1-4 2.3-1.56 0.91-12.09 7-2 1.18-1 0.6-0.81 0.47-2.11 1.22-0.4 0.23-2.13 1.26h0.05a17.84 17.84 0 0 0-6 5.79q-0.4 0.61-0.76 1.26-0.36 0.64-0.68 1.33l-0.06 0.14c-0.2 0.43-0.39 0.87-0.57 1.32l-0.07 0.19c-0.17 0.44-0.34 0.89-0.49 1.36l-0.08 0.28c-0.14 0.44-0.27 0.89-0.4 1.35 0 0.09 0 0.19-0.06 0.28-0.12 0.47-0.23 0.94-0.33 1.43 0 0.12 0 0.24-0.06 0.36-0.09 0.47-0.18 0.94-0.25 1.43 0 0.15 0 0.31-0.06 0.46-0.06 0.47-0.13 0.93-0.17 1.41v0.52c0 0.47-0.08 0.94-0.1 1.43v2.05a62.58 62.58 0 0 0 4.04 21.61q0.4 1.09 0.84 2.17 0.87 2.17 1.88 4.3t2.13 4.22a83.8 83.8 0 0 0 10.71 15.43 61.67 61.67 0 0 0 15.12 12.72l244.96 141.4q0.93 0.54 1.85 1l0.61 0.3c0.41 0.2 0.81 0.4 1.21 0.59l0.71 0.31 1.09 0.46 0.75 0.28 1 0.37 0.76 0.23 1 0.29 0.75 0.19 1 0.22 0.74 0.14 0.94 0.15 0.72 0.09 0.92 0.08H442l0.64-0.05 0.88-0.12 0.6-0.1 0.87-0.19 0.56-0.13c0.29-0.08 0.58-0.17 0.87-0.27l0.5-0.16c0.3-0.11 0.6-0.23 0.89-0.36l0.43-0.18c0.32-0.15 0.64-0.31 1-0.48l0.32-0.16q0.61-0.34 1.18-0.73c-0.32 0.22-0.64 0.42-1 0.62l3.81-2.21 0.14-0.08 0.1-0.06 0.24-0.14 1-0.61 0.09-0.05 0.47-0.27 0.37-0.22 0.7-0.41 1.46-0.85 3.15-1.83 3.41-2 4.64-2.7 4.09-2.38 4.71-2.73 7-4.1 9.62-5.59 2.76-1.6 5.39-3.13 1.86-1.08 15.39-8.94 10.4-6 8.11-4.72 15.8-9.18h0.08l2.72-1.58 1.5-0.87 9.53-5.54 0.3-0.18 1.25-0.73 0.56-0.32 0.16-0.1 0.79-0.48c0.31-0.19 0.62-0.39 0.92-0.59l1-0.67a19.2 19.2 0 0 0 5.44-7 28.28 28.28 0 0 0 2.29-7.26c0.13-0.75 0.24-1.51 0.32-2.26a43.12 43.12 0 0 0 0.24-6.14 55.68 55.68 0 0 0-0.63-6.89z" fill="#F0F5FF" p-id="41762"></path><path d="M180.17 139.52l346.58 200.1L530.8 201 304.15 70.13l-2.3-1.33c-7.58-4.32-17.1-7-25.15-2.32-2.85 1.64-5.68 3.3-8.53 5L161.3 133.54l-6.09 3.54c7.91-4.59 17.56-1.81 24.96 2.44z" fill="#C0D3F2" p-id="41763"></path><path d="M550.84 353.53l0.52-140.66-33.53-19.36v141z" fill="#BFD2F2" p-id="41764"></path><path d="M562.1 360l0.23-140.83L543 208v141z" fill="#BED2F2" p-id="41765"></path><path d="M574.59 367.24l-1.4-141.77-16.77-9.68v141z" fill="#BDD1F2" p-id="41766"></path><path d="M603.56 384.11v-141c-18.69-10.93-27.85-16.22-37-21.51v141c9.44 5.4 18.56 10.72 37 21.51z" fill="#BCD1F1" p-id="41767"></path><path d="M615.74 391L613 248.42l-19-10.93v141z" fill="#BBD0F1" p-id="41768"></path><path d="M642.23 406.29l-0.69-141.36-35.74-20.64v141z" fill="#BACFF1" p-id="41769"></path><path d="M658.24 415.53l-5.76-144.29-19.88-11.48v141z" fill="#B9CFF1" p-id="41770"></path><path d="M671.68 423.29l-0.35-141.17-24.61-14.21v141z" fill="#B8CEF1" p-id="41771"></path><path d="M686.91 432.09l-0.09-141-23.64-13.65v141z" fill="#B7CEF1" p-id="41772"></path><path d="M712.78 447l-0.08-141-35.4-20.44v141z" fill="#B6CDF1" p-id="41773"></path><path d="M724.2 453.67l2.73-139.44-20.5-11.84v141c6.06 3.47 15.16 8.77 17.77 10.28z" fill="#B4CCF0" p-id="41774"></path><path d="M722.25 452.49a61.45 61.45 0 0 1 16.66 14.38l1.79-144.69L719.55 310v141z" fill="#B3CCF0" p-id="41775"></path><path d="M738.47 466.35c2.15 2.52 7.64 9.83 9.75 14.26l3.17-152.26-17.38-10v143.22a71.86 71.86 0 0 1 4.46 4.78z" fill="#B2CBF0" p-id="41776"></path><path d="M756.24 502.25c2.25 11.07 2 26.72-9.13 33.17l3.82-2.22 34.85-20.2-3.32-166.66-38-21.93v150a79.46 79.46 0 0 1 11.78 27.84z" fill="#B1CBF0" p-id="41777"></path><path d="M801.21 504l-3.88-149.11-22.07-12.74v176.91z" fill="#B0CAF0" p-id="41778"></path><path d="M827.74 488.57L827 372l-36.23-20.92v159z" fill="#AFC9F0" p-id="41779"></path><path d="M843.29 479.52l-1.93-99.23-22.84-13.19v126.83z" fill="#AEC9EF" p-id="41780"></path><path d="M857.37 471.32l-2.06-80.84c-2.14-2.62-9.46-7.59-11.55-8.8l-9.12-5.27v108.15z" fill="#ADC8EF" p-id="41781"></path><path d="M869.77 464.08l-1.08-56.37c-1.33-3-6.62-9.72-7.57-10.89a67 67 0 0 0-11.35-11.09v90c4.71-2.73 15.29-8.92 20-11.65z" fill="#ACC8EF" p-id="41782"></path><path d="M868 465.15a23.54 23.54 0 0 0 2.67-1.75c4.43-3.45 6.78-8.83 7.74-14.24a41.13 41.13 0 0 0 0.56-8.4c-0.44-14.46-6.58-28.68-15.1-40.34v67.13z" fill="#ABC7EF" p-id="41783"></path><path d="M722.47 452.62c19.25 11.11 34.95 38.3 34.88 60.42s-15.86 31.11-35.11 20L179.85 219.89c-19.24-11.11-34.94-38.3-34.88-60.41s15.86-31.12 35.1-20z" fill="#F0F5FF" p-id="41784"></path><path d="M181 439.46c1.32 0.76 151.64 88 265 153.9l-0.69-142.25L303.06 369l-1.59-0.91c-7.53-4.2-16.88-6.67-24.82-2.09l-117.72 68.41-3.72 2.16c8.29-4.82 18.09-1.57 25.79 2.89z" fill="#C0D3F2" p-id="41785"></path><path d="M454.8 598.3l-1.2-142.39-15.41-8.91v141.63z" fill="#BFD2F2" p-id="41786"></path><path d="M486.8 616.68l-3.11-143.4-36.56-21.11v141.66c11.03 6.42 29.46 16.9 39.67 22.85z" fill="#BED2F2" p-id="41787"></path><path d="M495.05 622l-0.92-142.68-15.05-8.69v141.8c3.54 2.06 12.55 7.57 15.97 9.57z" fill="#BDD1F2" p-id="41788"></path><path d="M505 627.68l0.58-141.76-16.06-9.27v141.86c3.73 2.17 11.9 7.09 15.48 9.17z" fill="#BCD1F1" p-id="41789"></path><path d="M513.86 632.87l0.84-141.68-14.24-8.19v141.89c3.54 2.11 10.02 6 13.4 7.98z" fill="#BBD0F1" p-id="41790"></path><path d="M524.68 639.37l0.47-142.15L510.9 489v142c2.89 1.67 11.04 6.77 13.78 8.37z" fill="#BACFF1" p-id="41791"></path><path d="M554 656.8l2.08-141.74-36.72-21.2v142C531 642.74 545.5 651.81 554 656.8z" fill="#B9CFF1" p-id="41792"></path><path d="M563.61 662.18l1.36-142-15.18-8.76v142.34c4.08 2.4 10.62 6.53 13.82 8.42z" fill="#B8CEF1" p-id="41793"></path><path d="M572.55 667.55l-0.29-143.13-11.53-6.66v142.45c3.34 1.98 9.55 5.98 11.82 7.34z" fill="#B7CEF1" p-id="41794"></path><path d="M575.64 669.26c0.85 0.8 5.06 5.43 5.87 6.27l0.58-145.43-12.91-7.46v142.6c3.93 2.36 6.18 3.76 6.46 4.02z" fill="#B6CDF1" p-id="41795"></path><path d="M592.6 692.78c4.2 8.71 7.15 18.31 7.28 28 0.12 8.6-2.25 18.53-10.23 23.17 1.27-0.74 14.06-7.07 20.2-10.56l-1.52-188.19-30.21-17.4v143.91a81.42 81.42 0 0 1 14.48 21.07z" fill="#B4CCF0" p-id="41796"></path><path d="M619.6 728V551.76l-15.55-9V736.6c3.14-1.68 11.44-6.28 15.55-8.6z" fill="#B3CCF0" p-id="41797"></path><path d="M630.4 721.95l-1.05-164.57L615 549.1v181.51c3.25-1.8 11.71-6.61 15.4-8.66z" fill="#B2CBF0" p-id="41798"></path><path d="M640.58 716.14l0.94-151.73-16.07-9.28v169.63c3.04-1.76 11.89-6.76 15.13-8.62z" fill="#B1CBF0" p-id="41799"></path><path d="M673.11 697.16l-0.3-114.68-37.93-21.9V719.4c10.94-6.23 27.12-15.65 38.23-22.24z" fill="#B0CAF0" p-id="41800"></path><path d="M680.61 692.69l0.39-105.46-12.21-7.05V699.7c2.74-1.59 9.21-5.46 11.82-7.01z" fill="#AFC9F0" p-id="41801"></path><path d="M690.48 686.73l1-93.05a41.43 41.43 0 0 0-4.83-3.2l-1.49-0.86-8.4-4.85V695c3.83-2.28 10.24-6.17 13.72-8.27z" fill="#AEC9EF" p-id="41802"></path><path d="M703.21 678.8l-1.44-75.65a70.09 70.09 0 0 0-14-12v97.28c3.91-2.43 11.97-7.31 15.44-9.63z" fill="#ADC8EF" p-id="41803"></path><path d="M711.38 673.35L710 614.27a75.08 75.08 0 0 0-11.32-14.42v81.82c3.2-2.01 10.15-6.4 12.7-8.32z" fill="#ACC8EF" p-id="41804"></path><path d="M713.23 672c4.43-3.45 6.78-8.83 7.74-14.24a41.18 41.18 0 0 0 0.56-8.41c-0.38-12.46-5.11-24.71-11.63-35.2-0.88-1.42-1.82-2.82-2.79-4.2v66.33c2.65-1.77 4.74-3.23 6.12-4.28z" fill="#ABC7EF" p-id="41805"></path><path d="M565 661.19c19.25 11.11 34.95 38.3 34.88 60.41s-15.86 31.12-35.11 20L179.85 519.38C160.6 508.27 144.91 481.08 145 459s15.86-31.11 35.1-20z" fill="#F0F5FF" p-id="41806"></path><path d="M581.56 863a67.17 67.17 0 0 0-6.84-26.42 83.4 83.4 0 0 0-15.6-22.64 66.78 66.78 0 0 0-14.56-11l-59.4-34.29-7-4.07-8.8-5.08-8-4.65-7.3-4.21-7.55-4.36-27.55-15.9-8-4.65-5.55-3.2-6.55-3.78-6.55-3.78-7.3-4.21-29.3-16.91-6.8-3.92-7-4.07-6.8-3.92-6-3.49-24.71-14.24-1.54-0.88c-1.49-0.84-3-1.65-4.55-2.37a31.78 31.78 0 0 0-7.55-2.56c-0.42-0.08-0.83-0.13-1.25-0.19a21.67 21.67 0 0 0-7 0.13 18.82 18.82 0 0 0-6 2.21l-15.8 9.18-6.3 3.66-6.8 3.95-8 4.68-9 5.26-7.8 4.53-25.3 14.7-8 4.68-6.3 3.66-7.3 4.24-18.61 10.71-2.09 1.2h0.06c-6.32 3.64-10.26 11.41-10.29 22.43-0.06 22.11 15.63 49.3 34.88 60.41l244.94 141.4c10.21 5.89 19.45 6.13 25.88 1.75q-0.49 0.33-1 0.63l3.82-2.22 0.48-0.28 7.3-4.24 8-4.68 8.8-5.11 7-4.1 85.43-49.65a23.58 23.58 0 0 0 2.67-1.75c4.43-3.45 6.78-8.83 7.74-14.24a41.11 41.11 0 0 0 0.64-8.35z" fill="#FFC2B6" p-id="41807"></path><path d="M157.3 729.8l-2.09 1.2c6.42-3.73 14.81-2.7 22.57 1.15l-0.14-14.15z" fill="#FFA78F" p-id="41808"></path><path d="M175.76 719.07v12.17a43.3 43.3 0 0 1 4.5 2.26l6.08 3.51-1.06-23.47z" fill="#FFA68E" p-id="41809"></path><path d="M183.05 714.83v20.28l9.54 5.51L191.4 710z" fill="#FFA58D" p-id="41810"></path><path d="M189.35 711.17v27.58l11.24 6.49 0.76-41z" fill="#ff976a" p-id="41811" data-spm-anchor-id="a313x.7781069.0.i99" class="selected"></path><path d="M197.4 706.49v36.9l29 16.76-0.55-70.15z" fill="#ff976a" p-id="41812" data-spm-anchor-id="a313x.7781069.0.i100" class="selected"></path><path d="M222.69 691.79V758l10.71 6.19v-78.64z" fill="#ff976a" p-id="41813" data-spm-anchor-id="a313x.7781069.0.i98" class="selected"></path><path d="M230.49 687.26v75.24l12.64 7.3L243 680z" fill="#ff976a" p-id="41814" data-spm-anchor-id="a313x.7781069.0.i101" class="selected"></path><path d="M239.54 682v85.72l11.33 6.54-0.5-98.55z" fill="#FFA088" p-id="41815" data-spm-anchor-id="a313x.7781069.0.i103" class=""></path><path d="M247.58 677.33v95l9.65 5.57-0.54-105.9z" fill="#ff976a" p-id="41816" data-spm-anchor-id="a313x.7781069.0.i102" class="selected"></path><path d="M254.38 673.38v102.91l10.13 5.85-0.44-114.39z" fill="#FF9E86" p-id="41817"></path><path d="M276.47 660.54l-15.8 9.18v110.21l25.38 14.66-0.69-136.59a19.89 19.89 0 0 0-8.89 2.54z" fill="#ff976a" p-id="41818" data-spm-anchor-id="a313x.7781069.0.i97" class="selected"></path><path d="M282.47 658.33v134.18l10.64 6.14-0.77-139.91a22.46 22.46 0 0 0-9.87-0.41z" fill="#FF9C83" p-id="41819"></path><path d="M290.77 658.39l-1.25-0.19v138.38l11.63 6.72-0.82-141.3a33.36 33.36 0 0 0-9.56-3.61z" fill="#FF9B82" p-id="41820"></path><path d="M298.32 661v140.7l7.87 4.55-0.3-141.14a77.08 77.08 0 0 0-7.57-4.11z" fill="#FF9A81" p-id="41821"></path><path d="M304.4 664.21l-1.54-0.88v141L332 821.12l-0.87-141.46z" fill="#ff976a" p-id="41822" data-spm-anchor-id="a313x.7781069.0.i96" class="selected"></path><path d="M328.91 678.36v141l9.9 5.72-1.43-141.79z" fill="#FF997F" p-id="41823"></path><path d="M335 681.85v141l10.95 6.32-1.47-141.81z" fill="#FF987E" p-id="41824"></path><path d="M341.75 685.77v141l11.39 6.57-1.59-141.88z" fill="#FF977D" p-id="41825"></path><path d="M348.8 689.84v141l9.66 5.57-0.18-141.07z" fill="#FF967C" p-id="41826"></path><path d="M355.6 693.77v141l32.48 18.74 0.6-140.62z" fill="#ff976a" p-id="41827" data-spm-anchor-id="a313x.7781069.0.i95" class="selected"></path><path d="M384.89 710.68v141l10 5.76-0.48-141.24z" fill="#ff976a" p-id="41828" data-spm-anchor-id="a313x.7781069.0.i104" class=""></path><path d="M392.19 714.89v141l9.83 5.66-0.55-141.28z" fill="#FF9379" p-id="41829"></path><path d="M398.74 718.67v141l8.74 5-0.28-141.12z" fill="#ff976a" p-id="41830" data-spm-anchor-id="a313x.7781069.0.i107" class="selected"></path><path d="M405.28 722.45v141l7.87 4.52 0.34-140.76z" fill="#ff976a" p-id="41831" data-spm-anchor-id="a313x.7781069.0.i108" class="selected"></path><path d="M410.83 725.66v141c3.08 1.78 8.32 4.77 10.59 6.08l1.08-140.34z" fill="#FF9075" p-id="41832"></path><path d="M418.88 730.3v141L427 876c7.79 5 15.78 13.66 21 22.06l1.07-150.33z" fill="#ff976a" p-id="41833" data-spm-anchor-id="a313x.7781069.0.i94" class="selected"></path><path d="M449.67 957.62c-1.36 0.56 2.54-1.48 3.82-2.22l2.62-1.52-0.61-1.8c-1.5 2.36-4.27 4.92-5.83 5.54z m-3.25-211.41v149.43a91.58 91.58 0 0 1 5.64 9.63c0.67 1.32 2.43 5.4 3 6.76l1.6-159.9z" fill="#ff976a" p-id="41834" data-spm-anchor-id="a313x.7781069.0.i109" class="selected"></path><path d="M454 954v1.08l15.75-9.08-5.61-189.52-10.14-5.92v158.75a72.3 72.3 0 0 1 4.7 14.69 47.46 47.46 0 0 1 0.5 18.73A24.68 24.68 0 0 1 454 954z" fill="#ff976a" p-id="41835" data-spm-anchor-id="a313x.7781069.0.i93" class=""></path><path d="M478.11 941.1l-6-180.07-10.82-6.25v196.11z" fill="#FF8C71" p-id="41836" data-spm-anchor-id="a313x.7781069.0.i105" class=""></path><path d="M484.86 937.17l-3.84-171-11.7-6.76v186.8z" fill="#ff976a" p-id="41837" data-spm-anchor-id="a313x.7781069.0.i106" class="selected"></path><path d="M495.32 931.1l-7-160.69-10.24-5.91v176.6z" fill="#FF8A6F" p-id="41838"></path><path d="M570.59 887.35a23.58 23.58 0 0 0 2.67-1.75c4.43-3.45 6.78-8.83 7.74-14.24a41.11 41.11 0 0 0 0.56-8.4 67.17 67.17 0 0 0-6.84-26.42 83.4 83.4 0 0 0-15.6-22.64 66.78 66.78 0 0 0-14.56-11l-59.4-34.29V937z" fill="#ff976a" p-id="41839" data-spm-anchor-id="a313x.7781069.0.i92" class="selected"></path><path d="M425 874.82c19.25 11.11 34.95 38.3 34.88 60.42s-15.86 31.11-35.11 20L179.85 813.81c-19.24-11.11-34.94-38.3-34.88-60.41s15.86-31.12 35.1-20z" fill="#ff976a" p-id="41840" data-spm-anchor-id="a313x.7781069.0.i91" class="selected"></path></svg>