<?xml version="1.0" standalone="no"?><!DOCTYPE svg PUBLIC "-//W3C//DTD SVG 1.1//EN" "http://www.w3.org/Graphics/SVG/1.1/DTD/svg11.dtd"><svg t="1591927494666" class="icon" viewBox="0 0 1024 1024" version="1.1" xmlns="http://www.w3.org/2000/svg" p-id="2239" xmlns:xlink="http://www.w3.org/1999/xlink" width="48" height="48"><defs><style type="text/css"></style></defs><path d="M0 0m171.772675 0l680.45465 0q171.772675 0 171.772675 171.772675l0 680.45465q0 171.772675-171.772675 171.772675l-680.45465 0q-171.772675 0-171.772675-171.772675l0-680.45465q0-171.772675 171.772675-171.772675Z" fill="#FFFFFF" p-id="2240"></path><path d="M166.466494 147.55574L88.110545 406.727481a39.277714 39.277714 0 0 0-1.668987 11.303896V505.350649a39.038338 39.038338 0 0 0 8.105559 23.824624l36.990338 48.094753a39.071584 39.071584 0 0 0 51.339636 9.515221l203.928935-124.62213a39.144727 39.144727 0 0 0 9.641558-8.324987l53.301195-63.966753a39.064935 39.064935 0 0 0 9.056416-25.001559V322.427013a39.071584 39.071584 0 0 0-11.902338-28.073558l-178.634805-172.883117a39.044987 39.044987 0 0 0-36.644571-9.827741l-37.236364 9.309091a39.084883 39.084883 0 0 0-27.920623 26.604052z" p-id="2241"></path><path d="M871.138078 148.566442l77.970286 257.901714a41.053091 41.053091 0 0 1 1.748779 11.842493v86.441559a40.946701 40.946701 0 0 1-8.484572 24.955013l-35.593974 46.272831a40.933403 40.933403 0 0 1-53.786597 9.974026L650.758649 462.329351a40.886857 40.886857 0 0 1-10.100363-8.717299l-52.676156-63.215377a40.933403 40.933403 0 0 1-9.488624-26.205091v-40.973298a40.920104 40.920104 0 0 1 12.467533-29.410078l177.324883-171.613091a40.940052 40.940052 0 0 1 38.393351-10.293195l35.208311 8.80374a40.933403 40.933403 0 0 1 29.250494 27.86078z" p-id="2242"></path><path d="M259.723636 286.626909c1.536 17.414649 8.950026 60.31626 44.75678 68.654546a5.073455 5.073455 0 0 0 2.074597 0.039896L379.012987 345.766234c-11.869091 6.376727 12.633766 0.664935 13.298701 0a23.212883 23.212883 0 0 0 6.649351-13.298702c0-6.649351-132.847377-50.608208-132.847377-50.608207a4.701091 4.701091 0 0 0-6.390026 4.767584z" fill="#ff7f4d" p-id="2243" data-spm-anchor-id="a313x.7781069.0.i16" class="selected"></path><path d="M831.168831 286.626909c-1.536 17.414649-8.950026 60.31626-44.75013 68.654546a5.080104 5.080104 0 0 1-2.074597 0.039896L711.859532 345.766234c11.869091 6.376727-12.633766 0.664935-13.298701 0a23.212883 23.212883 0 0 1-6.64935-13.298702c0-6.649351 132.854026-50.608208 132.854025-50.608207a4.701091 4.701091 0 0 1 6.403325 4.767584z" fill="#ff7f4d" p-id="2244" data-spm-anchor-id="a313x.7781069.0.i17" class="selected"></path><path d="M392.311688 618.38961s139.636364 119.688312 152.935065 79.792208c0 0 79.792208-73.142857 99.74026-73.142857 0 0 26.597403-13.298701 6.649351-33.246753 0 0-33.246753-59.844156-66.493507-39.896104a209.534338 209.534338 0 0 1-86.441558 6.649351s-53.194805-19.948052-79.792208 6.64935-26.597403 53.194805-26.597403 53.194805z" p-id="2245"></path><path d="M201.083013 663.605195a93.842286 93.842286 0 0 1 13.072623-31.251948 11.47013 11.47013 0 0 1 20.48 4.714389 60.382753 60.382753 0 0 0 13.637819 30.879585 11.476779 11.476779 0 0 1 3.324675 9.688104c-2.912416 20.167481-7.207896 85.71013 54.272 113.637402 73.142857 33.246753 226.077922-13.298701 226.077922-13.298701a32.109714 32.109714 0 0 1 26.597403 0c13.218909 6.609455 92.113455 72.331636 190.995948 14.382545a11.111065 11.111065 0 0 1 3.617246-1.289974c8.012468-1.442909 41.604987-12.866494 70.483117-103.490493a11.629714 11.629714 0 0 1 2.812676-4.654546l1.32987-1.32987a11.503377 11.503377 0 0 0 3.37122-8.138805v-4.993662a11.503377 11.503377 0 0 1 22.920312-1.462857 35.906494 35.906494 0 0 1-0.937558 12.500779 11.490078 11.490078 0 0 1-6.576208 7.467221 77.551377 77.551377 0 0 1-9.974026 3.650493 11.636364 11.636364 0 0 0-7.819636 6.86213l-47.921871 119.794701a11.510026 11.510026 0 0 1-10.665558 7.247793H758.025974c-5.558857 0-48.33413 74.426182-62.184727 98.776103a11.416935 11.416935 0 0 1-12.839896 5.43252c-21.703481-5.632-80.317506-21.317818-122.88-37.129974a10.758649 10.758649 0 0 0-3.324676-0.664935c-12.939636-0.664935-95.624312-3.27813-139.962181 29.669402a11.16426 11.16426 0 0 1-10.871689 1.243429c-23.512104-9.588364-105.837714-47.536208-119.435636-113.843532a11.496727 11.496727 0 0 0-3.07865-5.864728l-28.25974-28.25974a11.510026 11.510026 0 0 1-3.185039-6.077507l-11.782649-64.797922a11.529974 11.529974 0 0 0-4.933818-7.520415l-29.423377-19.608935a11.510026 11.510026 0 0 1-4.780883-12.268052z" p-id="2246" data-spm-anchor-id="a313x.7781069.0.i14" class="selected" fill="#ff7f4d"></path><path d="M372.363636 817.87013s-13.298701 73.142857 39.896104 66.493506a73.428779 73.428779 0 0 1 46.545455-19.948052s113.038961-13.298701 152.935065 6.649351 66.493506 0 73.142857-26.597403a28.811636 28.811636 0 0 0-26.597403-13.298701l-66.493506-13.298701h-166.233766l-24.462961 6.117402a7.314286 7.314286 0 0 1-4.228987-0.219428c-9.83439-3.603948-16.862753-7.094857-24.502858-5.897974z" fill="#FFFFFF" p-id="2247"></path></svg>