<?xml version="1.0" standalone="no"?><!DOCTYPE svg PUBLIC "-//W3C//DTD SVG 1.1//EN" "http://www.w3.org/Graphics/SVG/1.1/DTD/svg11.dtd"><svg t="1591865468603" class="icon" viewBox="0 0 1024 1024" version="1.1" xmlns="http://www.w3.org/2000/svg" p-id="4322" xmlns:xlink="http://www.w3.org/1999/xlink" width="48" height="48"><defs><style type="text/css"></style></defs><path d="M314.514286 709.485714L287.695238 780.190476l141.409524 4.876191-51.2-85.333334z" fill="#FFE0B2" p-id="4323"></path><path d="M416.914286 704.609524c46.32381 0 197.485714-82.895238 212.114285-234.057143 14.628571-163.352381 21.942857-265.752381-36.571428-302.32381-29.257143-17.066667-43.885714 0-78.019048 0C336.457143 170.666667 195.047619 334.019048 195.047619 536.380952c0 95.085714 9.752381 119.466667 48.761905 148.72381 41.447619 34.133333 80.457143 19.504762 173.104762 19.504762z" fill="#FFE0B2" p-id="4324"></path><path d="M743.619048 804.571429c126.780952 0 231.619048-131.657143 231.619047-292.571429S870.4 219.428571 743.619048 219.428571c-36.571429 0-70.704762 9.752381-99.961905 29.257143 0 58.514286 9.752381 85.333333 9.752381 202.361905 0 48.761905-129.219048 158.47619-112.152381 199.92381 36.571429 90.209524 114.590476 153.6 202.361905 153.6z" fill="#FFE0B2" p-id="4325"></path><path d="M1011.809524 502.247619c0-168.228571-121.904762-304.761905-270.628572-304.761905-36.571429 0-68.266667 7.314286-99.961904 21.942857C590.019048 97.52381 480.304762 9.752381 351.085714 9.752381 175.542857 9.752381 34.133333 170.666667 34.133333 368.152381c0 170.666667 104.838095 312.07619 246.247619 351.085714l-26.819047 75.580953h70.704762L316.952381 828.952381c-4.87619 21.942857 0 43.885714 14.628571 58.514286 7.314286 7.314286 7.314286 17.066667 2.438096 24.380952L292.571429 982.552381c-4.87619 9.752381-2.438095 21.942857 7.314285 29.257143 2.438095 2.438095 7.314286 2.438095 9.752381 2.438095 7.314286 0 14.628571-4.87619 19.504762-9.752381l41.447619-70.704762c14.628571-24.380952 9.752381-53.638095-9.752381-73.142857-4.87619-4.87619-7.314286-12.190476-4.87619-19.504762l12.190476-43.885714h80.457143l-26.819048-75.580953c34.133333-9.752381 65.828571-24.380952 95.085714-43.885714 39.009524 65.828571 102.4 114.590476 175.542858 129.219048l-9.752381 31.695238h41.447619l-2.438096 9.752381c-4.87619 17.066667 0 34.133333 12.190477 46.323809 2.438095 2.438095 2.438095 7.314286 0 9.752381l-29.257143 48.761905c-4.87619 9.752381-2.438095 21.942857 7.314286 29.257143 2.438095 2.438095 7.314286 2.438095 9.75238 2.438095 7.314286 0 14.628571-4.87619 19.504762-9.752381l29.257143-48.761905c12.190476-19.504762 7.314286-43.885714-7.314285-58.514285-2.438095-2.438095-2.438095-4.87619-2.438096-7.314286l4.876191-19.504762h31.695238l-12.190476-34.133333c129.219048-29.257143 226.742857-153.6 226.742857-304.761905zM314.514286 780.190476l7.314285-51.2h58.514286L390.095238 780.190476h-75.580952z m185.295238-143.847619c-41.447619 31.695238-92.647619 48.761905-146.285714 48.761905-151.161905 0-275.504762-141.409524-275.504762-316.952381s124.342857-316.952381 275.504762-316.952381c112.152381 0 209.67619 78.019048 251.123809 190.171429 4.87619 14.628571 9.752381 29.257143 12.190476 41.447619 7.314286 26.819048 9.752381 56.07619 9.752381 85.333333 0 95.085714-36.571429 180.419048-92.647619 238.933333-12.190476 9.752381-21.942857 19.504762-34.133333 29.257143z m241.371428 129.219048c-78.019048 0-148.72381-46.32381-190.171428-117.028572 70.704762-65.828571 117.028571-165.790476 117.028571-277.942857 0-36.571429-4.87619-73.142857-14.628571-107.27619 26.819048-12.190476 56.07619-19.504762 87.771428-19.504762 124.342857 0 226.742857 117.028571 226.742858 263.314286s-102.4 258.438095-226.742858 258.438095z m-414.47619-629.028572c4.87619 9.752381 0 21.942857-9.752381 26.819048-68.266667 31.695238-117.028571 92.647619-134.095238 165.790476-2.438095 9.752381-12.190476 17.066667-21.942857 17.066667h-4.876191c-12.190476-2.438095-19.504762-12.190476-17.066666-24.380953 17.066667-85.333333 75.580952-158.47619 156.038095-195.047619 14.628571-4.87619 26.819048 0 31.695238 9.752381zM885.028571 609.52381c-12.190476 41.447619-41.447619 75.580952-82.895238 90.209523-2.438095 0-4.87619 2.438095-7.314285 2.438096-7.314286 0-17.066667-4.87619-19.504762-12.190477-4.87619-9.752381 0-21.942857 12.190476-26.819047 29.257143-9.752381 48.761905-34.133333 58.514286-63.390476 2.438095-12.190476 14.628571-17.066667 26.819047-14.628572 9.752381 2.438095 17.066667 14.628571 12.190476 24.380953z" fill="#FF9800" p-id="4326"></path><path d="M312.07619 1024c-4.87619 0-9.752381-2.438095-14.628571-4.87619-14.628571-7.314286-19.504762-26.819048-12.190476-41.44762l41.447619-70.704761c2.438095-4.87619 2.438095-9.752381-2.438095-14.628572-17.066667-17.066667-24.380952-43.885714-17.066667-68.266667l4.87619-21.942857h-73.142857l26.819048-78.019047c-68.266667-19.504762-126.780952-63.390476-170.666667-126.780953-21.942857-31.695238-41.447619-68.266667-53.638095-107.27619-9.752381-36.571429-17.066667-78.019048-17.066667-121.904762C24.380952 165.790476 173.104762 0 351.085714 0c63.390476 0 126.780952 21.942857 180.419048 60.952381 48.761905 36.571429 87.771429 87.771429 114.590476 146.285714 31.695238-12.190476 63.390476-19.504762 95.085714-19.504762 153.6 0 277.942857 138.971429 277.942858 312.076191v2.438095c0 73.142857-24.380952 146.285714-65.828572 202.361905-41.447619 53.638095-95.085714 90.209524-156.038095 104.838095l12.190476 36.571429h-36.571429l-2.438095 12.190476c17.066667 19.504762 21.942857 46.32381 7.314286 68.266666l-29.257143 48.761905c-4.87619 9.752381-14.628571 14.628571-26.819048 14.628572-4.87619 0-9.752381-2.438095-14.628571-4.876191-14.628571-7.314286-19.504762-26.819048-12.190476-41.447619l29.257143-48.761905c-14.628571-14.628571-19.504762-34.133333-14.628572-53.638095h-41.447619l12.190476-36.571428c-34.133333-7.314286-65.828571-21.942857-92.647619-43.885715-29.257143-21.942857-53.638095-46.32381-73.142857-78.019047-24.380952 17.066667-53.638095 29.257143-80.457143 39.009523L463.238095 804.571429h-85.333333l-12.190476 36.571428c0 4.87619 0 7.314286 2.438095 12.190476 21.942857 21.942857 26.819048 56.07619 9.752381 85.333334l-41.447619 70.704762c-2.438095 7.314286-12.190476 14.628571-24.380953 14.628571zM268.190476 785.066667h70.704762l-12.190476 43.885714c-4.87619 17.066667 0 36.571429 12.190476 51.2 9.752381 9.752381 9.752381 24.380952 4.876191 34.133333l-41.447619 70.704762c-2.438095 4.87619-2.438095 12.190476 4.87619 17.066667 2.438095 0 4.87619 2.438095 4.87619 2.438095 4.87619 0 9.752381-2.438095 9.752381-7.314286l41.447619-70.704762c12.190476-19.504762 9.752381-46.32381-7.314285-63.390476-7.314286-7.314286-9.752381-17.066667-7.314286-29.257143l14.628571-51.2h73.142858l-24.380953-73.142857 9.752381-2.438095c34.133333-9.752381 63.390476-21.942857 92.647619-43.885714l7.314286-4.876191 4.87619 7.314286c39.009524 65.828571 99.961905 109.714286 168.228572 124.342857l9.752381 2.438095-9.752381 36.571429h41.447619l-4.876191 19.504762c-4.87619 14.628571 0 29.257143 9.752381 39.009524 4.87619 4.87619 7.314286 14.628571 2.438096 19.504762l-29.257143 48.761904c-2.438095 4.87619-2.438095 12.190476 4.87619 17.066667 2.438095 0 4.87619 2.438095 4.876191 2.438095 4.87619 0 9.752381-2.438095 9.752381-7.314285l29.257143-48.761905c9.752381-14.628571 7.314286-34.133333-4.876191-48.761905-4.87619-4.87619-4.87619-9.752381-4.87619-17.066667l7.314285-26.819047h24.380953l-12.190477-31.695238 9.752381-2.438096c124.342857-24.380952 216.990476-146.285714 216.990477-290.133333 0-163.352381-117.028571-295.009524-260.876191-295.009524-34.133333 0-65.828571 7.314286-97.523809 21.942857l-9.752381 4.876191-2.438096-9.752381C577.828571 99.961905 468.114286 19.504762 348.647619 19.504762 177.980952 19.504762 41.447619 175.542857 41.447619 370.590476c0 160.914286 99.961905 304.761905 238.933333 341.333334l9.752381 2.438095-21.942857 70.704762z m472.990476-9.752381c-80.457143 0-153.6-46.32381-197.485714-121.904762l-2.438095-4.876191 4.87619-4.87619c73.142857-65.828571 114.590476-165.790476 114.590477-273.066667 0-36.571429-4.87619-70.704762-14.628572-104.838095l-2.438095-7.314286 7.314286-2.438095c29.257143-14.628571 58.514286-21.942857 90.209523-21.942857 129.219048 0 236.495238 121.904762 236.495238 270.628571s-107.27619 270.628571-236.495238 270.628572z m-177.980952-126.780953c41.447619 68.266667 107.27619 107.27619 177.980952 107.276191 119.466667 0 216.990476-114.590476 216.990477-253.561905s-97.52381-253.561905-216.990477-253.561905c-26.819048 0-51.2 4.87619-75.580952 17.066667 9.752381 34.133333 12.190476 68.266667 12.190476 102.4 0 109.714286-41.447619 209.67619-114.590476 280.380952z m-160.914286 121.904762h-99.961904l14.628571-51.2h73.142857l12.190476 51.2z m-75.580952 19.504762h51.2l-2.438095-51.2h-46.32381l-2.438095 51.2z m468.114286-78.019047c-12.190476 0-24.380952-7.314286-29.257143-19.504762-7.314286-14.628571 2.438095-31.695238 17.066666-39.009524 24.380952-9.752381 43.885714-31.695238 51.2-56.076191 4.87619-17.066667 21.942857-24.380952 36.571429-21.942857 7.314286 2.438095 14.628571 7.314286 19.504762 14.628572 4.87619 7.314286 4.87619 14.628571 2.438095 21.942857-12.190476 43.885714-43.885714 80.457143-87.771428 97.523809-2.438095 2.438095-4.87619 2.438095-9.752381 2.438096z m70.704762-119.466667c-4.87619 0-9.752381 2.438095-12.190477 9.752381-7.314286 31.695238-31.695238 56.07619-63.390476 68.266666-7.314286 2.438095-9.752381 9.752381-7.314286 14.628572 2.438095 4.87619 7.314286 7.314286 12.190477 7.314286h4.87619c39.009524-14.628571 68.266667-46.32381 78.019048-85.333334 0-2.438095 0-7.314286-2.438096-9.752381-2.438095-2.438095-4.87619-4.87619-7.314285-4.87619h-2.438095z m-514.438096 102.4c-156.038095 0-282.819048-146.285714-282.819047-326.704762S195.047619 43.885714 351.085714 43.885714c112.152381 0 214.552381 78.019048 260.876191 195.047619l14.628571 43.885715c7.314286 29.257143 9.752381 58.514286 9.752381 87.771428 0 92.647619-34.133333 182.857143-95.085714 243.809524-9.752381 12.190476-21.942857 21.942857-34.133333 31.695238-48.761905 31.695238-99.961905 48.761905-156.038096 48.761905z m0-633.904762c-146.285714 0-265.752381 138.971429-265.752381 309.638095s119.466667 309.638095 265.752381 309.638095c51.2 0 99.961905-17.066667 141.409524-48.761904 12.190476-9.752381 21.942857-19.504762 34.133333-29.257143 58.514286-58.514286 90.209524-143.847619 90.209524-231.619048 0-26.819048-2.438095-56.07619-9.752381-82.895238-2.438095-14.628571-7.314286-29.257143-12.190476-41.447619-41.447619-114.590476-138.971429-185.295238-243.809524-185.295238z m-187.733333 292.571429h-7.314286c-7.314286-2.438095-14.628571-7.314286-19.504762-12.190477-4.87619-7.314286-4.87619-14.628571-4.87619-21.942857 19.504762-87.771429 78.019048-163.352381 160.914286-199.923809 14.628571-7.314286 34.133333 0 41.447619 14.628571 7.314286 14.628571 0 31.695238-14.628572 39.009524-65.828571 29.257143-112.152381 87.771429-126.780952 158.47619-2.438095 12.190476-14.628571 21.942857-29.257143 21.942858z m143.847619-219.428572h-4.87619C224.304762 170.666667 168.228571 241.371429 151.161905 321.828571c0 2.438095 0 7.314286 2.438095 9.752381 2.438095 2.438095 4.87619 4.87619 7.314286 4.876191h2.438095c4.87619 0 9.752381-4.87619 12.190476-9.752381 14.628571-75.580952 68.266667-138.971429 136.533333-170.666667 7.314286-2.438095 9.752381-9.752381 4.876191-17.066666 0-2.438095-4.87619-4.87619-9.752381-4.876191z" fill="#FF9800" p-id="4327"></path></svg>