<?xml version="1.0" standalone="no"?><!DOCTYPE svg PUBLIC "-//W3C//DTD SVG 1.1//EN" "http://www.w3.org/Graphics/SVG/1.1/DTD/svg11.dtd"><svg t="1591759620886" class="icon" viewBox="0 0 1024 1024" version="1.1" xmlns="http://www.w3.org/2000/svg" p-id="7979" xmlns:xlink="http://www.w3.org/1999/xlink" width="48" height="48"><defs><style type="text/css"></style></defs><path d="M173.669 840.368a65.99 65.99 0 0 1-66.005 65.997 65.99 65.99 0 0 1-66.005-65.997V648.887a66.005 66.005 0 1 1 132.01 0v191.481z" fill="#FF1A1A" p-id="7980"></path><path d="M107.664 582.882a66.005 66.005 0 0 0-66.005 66.013v12.988c0 36.455 29.541 65.997 66.005 65.997s66.005-29.542 66.005-65.997v-12.988a65.997 65.997 0 0 0-66.005-66.013z" fill="#FF7676" p-id="7981"></path><path d="M107.664 918.466c-43.07 0-78.106-35.036-78.106-78.098V648.895c0-43.07 35.035-78.114 78.106-78.114s78.106 35.044 78.106 78.114v191.473c0 43.062-35.036 78.098-78.106 78.098z m0-323.484a53.969 53.969 0 0 0-53.905 53.913v191.473c0 29.72 24.177 53.897 53.905 53.897s53.904-24.178 53.904-53.897V648.895a53.969 53.969 0 0 0-53.904-53.913z" fill="#33363A" p-id="7982"></path><path d="M982.333 840.368a65.99 65.99 0 0 1-66.013 65.997 65.99 65.99 0 0 1-65.997-65.997V648.887a65.997 65.997 0 0 1 65.997-66.013 66.005 66.005 0 0 1 66.013 66.013v191.481z" fill="#FF1A1A" p-id="7983"></path><path d="M916.32 582.882a65.997 65.997 0 0 0-65.997 66.013v12.988a65.99 65.99 0 0 0 65.997 65.997 65.99 65.99 0 0 0 66.013-65.997v-12.988a66.005 66.005 0 0 0-66.013-66.013z" fill="#FF7676" p-id="7984"></path><path d="M916.32 918.466c-43.062 0-78.098-35.036-78.098-78.098V648.895c0-43.07 35.036-78.114 78.098-78.114 43.07 0 78.114 35.044 78.114 78.114v191.473c0 43.062-35.044 78.098-78.114 78.098z m0-323.484c-29.72 0-53.896 24.186-53.896 53.913v191.473a53.953 53.953 0 0 0 53.896 53.897c29.727 0 53.913-24.178 53.913-53.897V648.895a53.969 53.969 0 0 0-53.913-53.913z" fill="#33363A" p-id="7985"></path><path d="M539.868 91.885h-55.76c-199.83 0-362.424 162.6-362.424 362.44v418.183c0 76.984 62.392 139.391 139.392 139.391h501.815c77.001 0 139.408-62.407 139.408-139.391V454.316c0.008-199.83-162.584-362.431-362.431-362.431z" fill="#8DE4FF" p-id="7986"></path><path d="M539.868 190.328h-55.76c-199.83 0-362.424 162.6-362.424 362.44v319.74c0 76.984 62.392 139.391 139.392 139.391h501.815c77.001 0 139.408-62.407 139.408-139.391V552.759c0.008-199.83-162.584-362.431-362.431-362.431z" fill="#00AAFF" p-id="7987"></path><path d="M771.467 778.808c0 65.271-52.912 118.2-118.183 118.2H370.716c-65.263 0-118.183-52.937-118.183-118.2v-88.65c0-65.263 52.929-118.167 118.183-118.167h282.568c65.279 0 118.183 52.912 118.183 118.167v88.65z" fill="#FF1A1A" p-id="7988"></path><path d="M370.716 571.983c-43.312 0-81.082 23.362-101.67 58.124 20.588 34.769 58.35 58.156 101.67 58.156h282.568c43.312 0 81.082-23.387 101.653-58.156-20.579-34.762-58.341-58.124-101.653-58.124H370.716z" fill="#FF7676" p-id="7989"></path><path d="M770.983 474.427a12.1 12.1 0 0 1-12.1-12.1c0-125.928-102.453-228.38-228.397-228.38h-36.988c-125.928 0-228.388 102.452-228.388 228.38a12.1 12.1 0 1 1-24.202 0c0.009-139.28 113.32-252.582 252.59-252.582h36.988c139.287 0 252.598 113.303 252.597 252.582a12.1 12.1 0 0 1-12.1 12.1z m2.25 78.001a18.86 18.86 0 0 1-18.828-18.844v-21.241c0-10.383 8.446-18.829 18.829-18.829s18.828 8.446 18.828 18.829v21.24a18.853 18.853 0 0 1-18.828 18.845z" fill="#33363A" p-id="7990"></path><path d="M633.229 91.562C618.127 38.787 569.555 0 511.996 0c-57.55 0-106.131 38.779-121.225 91.562C229.268 133.14 109.584 280.01 109.584 454.316V872.5c0 83.536 67.965 151.493 151.492 151.493h501.815c83.544 0 151.51-67.957 151.51-151.493V454.316c0.007-174.298-119.669-321.168-281.172-362.754z m-121.233-67.36c41.828 0 77.823 25.338 93.53 61.463a374.79 374.79 0 0 0-65.658-5.881h-55.76c-22.402 0-44.313 2.09-65.642 5.88 15.715-36.124 51.702-61.463 93.53-61.463z m378.21 848.297c0 70.192-57.106 127.292-127.306 127.292H261.084c-70.192 0-127.29-57.108-127.29-127.292V454.316c0-159.205 106.776-293.853 252.452-336.318-0.178 2.718-0.412 5.42-0.412 8.188a12.1 12.1 0 1 0 24.202 0c0-4.937 0.476-9.761 1.153-14.513a350.557 350.557 0 0 1 72.935-7.688h55.76a350.03 350.03 0 0 1 72.943 7.696c0.678 4.752 1.154 9.568 1.154 14.505a12.1 12.1 0 1 0 24.2 0c0-2.759-0.241-5.462-0.41-8.18 145.667 42.473 252.452 177.113 252.452 336.318V872.5z" fill="#33363A" p-id="7991"></path><path d="M653.284 559.882H370.716c-71.837 0-130.284 58.439-130.284 130.268v88.65c0 71.846 58.447 130.3 130.284 130.3h282.568c71.837 0 130.284-58.454 130.284-130.3v-88.642c0-71.837-58.447-130.276-130.284-130.276z m0 325.025H370.716c-38.762 0-72.636-20.967-91.15-52.09h15.973a12.1 12.1 0 1 0 0-24.201h-26.573a105.808 105.808 0 0 1-4.34-29.808v-88.65c0-58.486 47.588-106.066 106.082-106.066h282.567c58.495 0 106.083 47.58 106.083 106.066v88.65c0 10.358-1.557 20.345-4.34 29.808h-26.573a12.1 12.1 0 1 0 0 24.201h15.973c-18.498 31.131-52.372 52.09-91.134 52.09z" fill="#33363A" p-id="7992"></path><path d="M419.224 808.616h-61.842a12.1 12.1 0 1 0 0 24.201h61.842a12.1 12.1 0 1 0 0-24.201z m123.693 0h-61.842a12.1 12.1 0 1 0 0 24.201h61.842a12.1 12.1 0 1 0 0-24.201z m123.685 0H604.76a12.1 12.1 0 1 0 0 24.201h61.842a12.1 12.1 0 1 0 0-24.201z" fill="#33363A" p-id="7993"></path></svg>