<?xml version="1.0" standalone="no"?><!DOCTYPE svg PUBLIC "-//W3C//DTD SVG 1.1//EN" "http://www.w3.org/Graphics/SVG/1.1/DTD/svg11.dtd"><svg t="1593251939977" class="icon" viewBox="0 0 1024 1024" version="1.1" xmlns="http://www.w3.org/2000/svg" p-id="6727" xmlns:xlink="http://www.w3.org/1999/xlink" width="16" height="16"><defs><style type="text/css"></style></defs><path d="M244.266667 355.2c-7.466667 0-14.933333-2.133333-21.333334-8.533333-6.4-5.333333-10.666667-13.866667-11.733333-22.4-1.066667-8.533333 2.133333-17.066667 8.533333-24.533334s13.866667-10.666667 22.4-11.733333c8.533333-1.066667 17.066667 2.133333 24.533334 8.533333s10.666667 13.866667 11.733333 22.4c1.066667 8.533333-2.133333 17.066667-8.533333 24.533334-7.466667 7.466667-16 11.733333-25.6 11.733333z m0-56.533333h-2.133334c-6.4 0-11.733333 3.2-14.933333 7.466666-8.533333 9.6-7.466667 23.466667 2.133333 32 9.6 8.533333 23.466667 7.466667 32-2.133333 4.266667-4.266667 6.4-10.666667 5.333334-16 0-6.4-3.2-11.733333-7.466667-14.933333-4.266667-4.266667-9.6-6.4-14.933333-6.4zM741.333333 721.066667c-1.066667 0-2.133333 0-3.2-1.066667l-32-27.733333c-2.133333-2.133333-2.133333-5.333333-1.066666-7.466667 2.133333-2.133333 5.333333-2.133333 7.466666-1.066667l32 27.733334c2.133333 2.133333 2.133333 5.333333 1.066667 7.466666-1.066667 1.066667-3.2 2.133333-4.266667 2.133334z" fill="#185A96" p-id="6728"></path><path d="M711.466667 723.2c-1.066667 0-2.133333 0-3.2-1.066667-2.133333-2.133333-2.133333-5.333333-1.066667-7.466666l27.733333-32c2.133333-2.133333 5.333333-2.133333 7.466667-1.066667 2.133333 2.133333 2.133333 5.333333 1.066667 7.466667l-27.733334 32c-1.066667 1.066667-3.2 2.133333-4.266666 2.133333z" fill="#185A96" p-id="6729"></path><path d="M660.266667 926.933333c-6.4 0-12.8-2.133333-18.133334-6.4-5.333333-5.333333-9.6-11.733333-9.6-19.2s2.133333-14.933333 6.4-20.266666 11.733333-9.6 19.2-9.6 14.933333 2.133333 20.266667 6.4c5.333333 5.333333 9.6 11.733333 9.6 19.2s-2.133333 14.933333-6.4 20.266666c-5.333333 5.333333-11.733333 9.6-19.2 9.6h-2.133333z m0-45.866666h-1.066667c-4.266667 0-8.533333 2.133333-11.733333 6.4-3.2 3.2-4.266667 8.533333-4.266667 12.8 0 4.266667 2.133333 8.533333 6.4 11.733333 3.2 3.2 8.533333 4.266667 12.8 4.266667 4.266667 0 8.533333-2.133333 11.733333-6.4 3.2-3.2 4.266667-8.533333 4.266667-12.8 0-4.266667-2.133333-8.533333-6.4-11.733334-3.2-3.2-7.466667-4.266667-11.733333-4.266666z" fill="#81B73B" p-id="6730"></path><path d="M406.4 388.266667c-1.066667 0-2.133333 0-3.2-1.066667l-32-27.733333c-2.133333-2.133333-2.133333-5.333333-1.066667-7.466667 2.133333-2.133333 5.333333-2.133333 7.466667-1.066667l32 27.733334c2.133333 2.133333 2.133333 5.333333 1.066667 7.466666-1.066667 1.066667-3.2 2.133333-4.266667 2.133334z" fill="#F4C94E" p-id="6731"></path><path d="M376.533333 390.4c-1.066667 0-2.133333 0-3.2-1.066667-2.133333-2.133333-2.133333-5.333333-1.066666-7.466666l27.733333-32c2.133333-2.133333 5.333333-2.133333 7.466667-1.066667 2.133333 2.133333 2.133333 5.333333 1.066666 7.466667l-27.733333 32c-1.066667 1.066667-3.2 2.133333-4.266667 2.133333z" fill="#F4C94E" p-id="6732"></path><path d="M170.666667 489.6c-6.4 0-12.8-2.133333-18.133334-6.4-11.733333-10.666667-12.8-27.733333-3.2-39.466667 5.333333-5.333333 11.733333-9.6 19.2-9.6 7.466667-1.066667 14.933333 2.133333 20.266667 6.4 11.733333 10.666667 12.8 27.733333 3.2 39.466667-5.333333 6.4-12.8 9.6-21.333333 9.6z m0-45.866667h-1.066667c-4.266667 0-8.533333 2.133333-11.733333 6.4-6.4 7.466667-5.333333 18.133333 2.133333 24.533334 7.466667 6.4 18.133333 5.333333 24.533333-2.133334 6.4-7.466667 5.333333-18.133333-2.133333-24.533333-3.2-3.2-7.466667-4.266667-11.733333-4.266667z" fill="#D190C5" p-id="6733"></path><path d="M278.4 885.333333c21.333333 11.733333 46.933333 9.6 68.266667-2.133333 1.066667 25.6 12.8 48 34.133333 59.733333 35.2 20.266667 83.2 2.133333 106.666667-40.533333 22.4-40.533333 14.933333-88.533333-18.133334-109.866667l70.4-126.933333-105.6-57.6-70.4 125.866667c-35.2-20.266667-83.2-2.133333-106.666666 40.533333-23.466667 41.6-13.866667 91.733333 21.333333 110.933333z" fill="#FF7F00" p-id="6734"></path><path d="M854.4 430.933333c57.6-104.533333 19.2-235.733333-84.266667-292.266666-104.533333-57.6-235.733333-19.2-292.266666 84.266666-23.466667 42.666667-30.933333 90.666667-24.533334 135.466667l-39.466666 222.933333c-2.133333 13.866667 4.266667 27.733333 16 34.133334L550.4 682.666667c11.733333 6.4 27.733333 5.333333 37.333333-4.266667l173.866667-158.933333c38.4-19.2 71.466667-49.066667 92.8-88.533334z" fill="#FF2400" p-id="6735"></path><path d="M522.666667 662.4c-7.466667 0-13.866667-2.133333-21.333334-5.333333l-120.533333-66.133334c-16-8.533333-24.533333-27.733333-21.333333-45.866666l39.466666-221.866667c-7.466667-49.066667 2.133333-98.133333 25.6-140.8 21.333333-38.4 53.333333-69.333333 91.733334-90.666667 5.333333-3.2 11.733333-1.066667 14.933333 4.266667 3.2 5.333333 1.066667 11.733333-4.266667 14.933333-35.2 18.133333-64 46.933333-83.2 82.133334-21.333333 39.466667-29.866667 84.266667-23.466666 129.066666v2.133334l-40.533334 225.066666c-2.133333 9.6 3.2 18.133333 10.666667 23.466667L512 637.866667c8.533333 4.266667 18.133333 3.2 25.6-3.2l176-160c37.333333-18.133333 68.266667-48 88.533333-84.266667 54.4-99.2 18.133333-224-80-278.4-5.333333-3.2-7.466667-9.6-4.266666-14.933333s9.6-7.466667 14.933333-4.266667c108.8 59.733333 149.333333 198.4 88.533333 307.2-22.4 39.466667-55.466667 71.466667-96 92.8L551.466667 650.666667c-7.466667 7.466667-18.133333 11.733333-28.8 11.733333zM429.866667 781.866667c-2.133333 0-3.2 0-5.333334-1.066667-5.333333-3.2-7.466667-9.6-4.266666-14.933333l48-85.333334c3.2-5.333333 9.6-7.466667 14.933333-4.266666 5.333333 3.2 7.466667 9.6 4.266667 14.933333l-48 85.333333c-2.133333 4.266667-6.4 5.333333-9.6 5.333334z" fill="#070100" p-id="6736"></path><path d="M372.266667 939.733333c-12.8 0-24.533333-3.2-36.266667-9.6-19.2-10.666667-33.066667-29.866667-37.333333-53.333333-22.4 7.466667-45.866667 6.4-65.066667-4.266667-20.266667-10.666667-33.066667-30.933333-38.4-54.4-4.266667-23.466667 0-49.066667 12.8-71.466666 12.8-22.4 32-39.466667 54.4-48 19.2-7.466667 39.466667-7.466667 56.533333-1.066667l71.466667-126.933333L515.2 640l-27.733333 50.133333c-3.2 5.333333-9.6 7.466667-14.933334 4.266667-5.333333-3.2-7.466667-9.6-4.266666-14.933333l17.066666-30.933334-87.466666-49.066666L327.466667 725.333333l-9.6-5.333333c-13.866667-7.466667-32-8.533333-49.066667-2.133333-18.133333 6.4-33.066667 20.266667-42.666667 38.4-9.6 18.133333-13.866667 38.4-10.666666 56.533333 3.2 18.133333 12.8 32 27.733333 40.533333 17.066667 9.6 38.4 8.533333 58.666667-2.133333l14.933333-8.533333 1.066667 17.066666c1.066667 22.4 11.733333 41.6 28.8 51.2 29.866667 17.066667 71.466667 1.066667 91.733333-36.266666 1.066667-1.066667 1.066667-2.133333 2.133333-4.266667 2.133333-5.333333 8.533333-7.466667 13.866667-4.266667 5.333333 2.133333 7.466667 8.533333 4.266667 13.866667-1.066667 2.133333-2.133333 3.2-2.133334 5.333333-18.133333 35.2-51.2 54.4-84.266666 54.4zM673.066667 94.933333c-1.066667 0-2.133333 0-3.2-1.066666 0 0-33.066667-11.733333-64-3.2-5.333333 2.133333-11.733333-2.133333-12.8-7.466667-2.133333-5.333333 2.133333-11.733333 7.466666-12.8 37.333333-10.666667 75.733333 3.2 76.8 4.266667 5.333333 2.133333 8.533333 8.533333 6.4 13.866666-2.133333 4.266667-6.4 6.4-10.666666 6.4z" fill="#070100" p-id="6737"></path><path d="M461.866667 845.866667h-1.066667c-5.333333-1.066667-9.6-6.4-9.6-11.733334 1.066667-5.333333-7.466667-20.266667-14.933333-30.933333-3.2-4.266667-2.133333-11.733333 2.133333-14.933333 4.266667-3.2 11.733333-2.133333 14.933333 2.133333 5.333333 6.4 20.266667 29.866667 18.133334 45.866667 0 6.4-4.266667 9.6-9.6 9.6z" fill="#070100" p-id="6738"></path><path d="M548.266667 278.4h-1.066667l-72.533333-7.466667c-4.266667 0-7.466667-4.266667-7.466667-8.533333s4.266667-7.466667 8.533333-7.466667l66.133334 7.466667-40.533334-55.466667c-2.133333-3.2-2.133333-8.533333 2.133334-10.666666 3.2-2.133333 8.533333-2.133333 10.666666 2.133333l43.733334 60.8c3.2 4.266667 3.2 9.6 1.066666 13.866667-2.133333 2.133333-6.4 5.333333-10.666666 5.333333zM726.4 408.533333c-2.133333 0-4.266667-1.066667-6.4-3.2l-45.866667-57.6c-3.2-4.266667-3.2-9.6-1.066666-13.866666 2.133333-4.266667 7.466667-7.466667 11.733333-6.4l74.666667 5.333333c4.266667 0 7.466667 4.266667 7.466666 8.533333s-4.266667 7.466667-8.533333 7.466667l-67.2-4.266667 41.6 52.266667c3.2 3.2 2.133333 8.533333-1.066667 11.733333h-5.333333zM555.733333 432c-5.333333 0-10.666667-1.066667-16-4.266667-16-8.533333-22.4-29.866667-16-53.333333 1.066667-5.333333 5.333333-9.6 10.666667-11.733333 5.333333-2.133333 10.666667-2.133333 16 1.066666l38.4 21.333334c5.333333 3.2 8.533333 7.466667 9.6 12.8 1.066667 5.333333-1.066667 10.666667-4.266667 14.933333-11.733333 11.733333-25.6 19.2-38.4 19.2z m-14.933333-59.733333c-1.066667 0-2.133333 0-3.2 1.066666-1.066667 0-3.2 2.133333-4.266667 4.266667-5.333333 18.133333-1.066667 34.133333 10.666667 40.533333 11.733333 6.4 27.733333 1.066667 40.533333-12.8 2.133333-2.133333 2.133333-4.266667 2.133334-6.4 0-2.133333-2.133333-4.266667-4.266667-5.333333L544 373.333333c-1.066667-1.066667-2.133333-1.066667-3.2-1.066666z" fill="" p-id="6739"></path><path d="M579.2 188.8c-2.133333 0-5.333333-1.066667-7.466667-3.2-4.266667-4.266667-4.266667-10.666667-1.066666-14.933333 22.4-24.533333 54.4-24.533333 56.533333-24.533334 6.4 0 10.666667 4.266667 10.666667 10.666667s-4.266667 10.666667-10.666667 10.666667c0 0-24.533333 1.066667-40.533333 18.133333-2.133333 2.133333-4.266667 3.2-7.466667 3.2z" fill="#FFFFFF" p-id="6740"></path><path d="M666.666667 156.8m-11.733334 0a11.733333 11.733333 0 1 0 23.466667 0 11.733333 11.733333 0 1 0-23.466667 0Z" fill="#FFFFFF" p-id="6741"></path></svg>