<?xml version="1.0" standalone="no"?><!DOCTYPE svg PUBLIC "-//W3C//DTD SVG 1.1//EN" "http://www.w3.org/Graphics/SVG/1.1/DTD/svg11.dtd"><svg t="1592366126440" class="icon" viewBox="0 0 1152 1024" version="1.1" xmlns="http://www.w3.org/2000/svg" p-id="17237" xmlns:xlink="http://www.w3.org/1999/xlink" width="54" height="48"><defs><style type="text/css"></style></defs><path d="M0 475.242667v-1.045334c0.277333-20.074667 17.066667-36.117333 37.461333-35.818666 20.394667 0.298667 36.693333 16.810667 36.394667 36.864v417.92c0 32.106667 26.453333 58.154667 59.093333 58.154666h886.101334c32.618667 0 59.093333-26.048 59.093333-58.154666V130.837333c0-32.128-26.474667-58.154667-59.093333-58.154666H132.949333c-32.64 0-59.093333 26.026667-59.093333 58.154666v161.621334c0 20.074667-16.533333 36.352-36.928 36.352C16.533333 328.810667 0 312.554667 0 292.48V109.034667C0 48.810667 49.6-0.021333 110.784-0.021333h930.410667C1102.4-0.021333 1152 48.810667 1152 109.034667v805.930666C1152 975.189333 1102.4 1024 1041.194667 1024H110.784C49.6 1024 0 975.189333 0 914.965333V475.242667z m392.597333-86.677334V645.973333c0.021333 20.074667-16.512 36.352-36.906666 36.352-20.394667 0.021333-36.949333-16.256-36.949334-36.330666V388.565333c-0.021333-20.074667 16.512-36.352 36.906667-36.373333 20.394667 0 36.949333 16.277333 36.949333 36.330667v0.042666z m147.733334 0V645.973333c0.021333 20.074667-16.512 36.352-36.906667 36.352-20.394667 0.021333-36.949333-16.256-36.949333-36.330666V388.565333c0-20.074667 16.554667-36.330667 36.949333-36.330666 20.373333 0 36.906667 16.277333 36.906667 36.330666z m147.754666 0V645.973333c0 20.074667-16.533333 36.352-36.928 36.352-20.394667 0.021333-36.949333-16.256-36.949333-36.330666V388.565333c0-20.074667 16.554667-36.330667 36.949333-36.330666s36.906667 16.277333 36.928 36.330666z m147.733334 0V645.973333c0 20.074667-16.533333 36.352-36.928 36.352-20.394667 0.021333-36.928-16.256-36.949334-36.330666V388.565333c0.021333-20.074667 16.554667-36.330667 36.949334-36.330666s36.906667 16.277333 36.928 36.330666z" fill="#5aa6ff" p-id="17238" data-spm-anchor-id="a313x.7781069.0.i34" class=""></path></svg>