<?xml version="1.0" standalone="no"?><!DOCTYPE svg PUBLIC "-//W3C//DTD SVG 1.1//EN" "http://www.w3.org/Graphics/SVG/1.1/DTD/svg11.dtd"><svg t="1593156218629" class="icon" viewBox="0 0 1081 1024" version="1.1" xmlns="http://www.w3.org/2000/svg" p-id="7765" xmlns:xlink="http://www.w3.org/1999/xlink" width="33.78125" height="32"><defs><style type="text/css"></style></defs><path d="M918.560645 881.913277h-180.10993a18.182973 18.182973 0 0 0-14.071089 6.003664l-100.061072 100.061073c-46.028093 46.028093-122.074508 46.028093-170.103823 0l-100.061073-100.061073a18.167338 18.167338 0 0 0-14.071088-6.003664H160.097716C72.043972 881.913277 0 809.869305 0 721.815561v-560.342005C0 73.48235 72.043972 1.37584 160.097716 1.37584h760.46415c88.053744 0 160.097716 72.10651 160.097716 160.097716v560.342005c-2.001221 88.053744-74.045194 160.097716-162.098937 160.097716z m0-80.048858a80.283376 80.283376 0 0 0 80.048858-80.048858v-560.342005a80.283376 80.283376 0 0 0-80.048858-80.048858h-760.464151a80.283376 80.283376 0 0 0-80.048858 80.048858v560.342005a80.283376 80.283376 0 0 0 80.048858 80.048858h180.109931c26.015879 0 52.031758 10.006107 70.042751 30.018322l100.061072 100.061072c16.009772 16.009772 40.024429 16.009772 56.034201 0l100.061072-100.061072c18.010993-18.010993 44.026872-30.018322 70.042751-30.018322z m-620.378649-420.256504c34.020765 0 60.036643 26.015879 60.036643 60.036643v40.024429c0 34.020765-26.015879 60.036643-60.036643 60.036644s-60.036643-26.015879-60.036644-60.036644v-40.024429c0-34.020765 26.015879-60.036643 60.036644-60.036643z m240.146574 0c34.020765 0 60.036643 26.015879 60.036643 60.036643v40.024429c0 34.020765-26.015879 60.036643-60.036643 60.036644s-60.036643-26.015879-60.036644-60.036644v-40.024429c0-34.020765 26.015879-60.036643 60.036644-60.036643z m240.146574 0c34.020765 0 60.036643 26.015879 60.036643 60.036643v40.024429c0 34.020765-26.015879 60.036643-60.036643 60.036644s-60.036643-26.015879-60.036644-60.036644v-40.024429c0-34.020765 26.015879-60.036643 60.036644-60.036643z m0 0" fill="#8a8a8a" p-id="7766"></path></svg>