<?xml version="1.0" standalone="no"?><!DOCTYPE svg PUBLIC "-//W3C//DTD SVG 1.1//EN" "http://www.w3.org/Graphics/SVG/1.1/DTD/svg11.dtd"><svg t="1593685801071" class="icon" viewBox="0 0 1082 1024" version="1.1" xmlns="http://www.w3.org/2000/svg" p-id="2192" xmlns:xlink="http://www.w3.org/1999/xlink" width="50.71875" height="48"><defs><style type="text/css"></style></defs><path d="M315.441981 1023.876708c-175.690765-50.179748-332.887765-329.928763-313.777542-522.140624C30.946233 210.705873 264.645773-0.246337 542.976933 0.000247c275.248865 0 498.40696 197.266824 535.332843 474.673294 34.275111 258.172956-129.456353 477.570651-306.688265 549.079875 0-23.548727-1.109626-44.323389 0-64.97476 3.822045-58.440297-5.733067-112.750319-45.248078-158.553209-13.438802-15.596408-2.589127-23.672019 9.123591-31.624338 46.296058-31.377754 79.030021-73.975059 103.811666-123.291765 90.681093-181.916999-7.459152-406.862824-202.506724-462.775639-208.671312-60.104735-418.205667 88.461841-424.925068 305.516993-3.575461 114.414758 41.549325 210.459043 136.422338 278.639389 21.267829 15.288179 28.418752 24.288478 6.164588 45.926182-30.822941 30.453066-38.467031 71.509224-39.206781 113.49007 0.184938 31.377754 0.184938 62.693862 0.184938 97.770369z" fill="#D7D7D7" p-id="2193"></path><path d="M541.928953 730.935475c-46.234412 0-92.468824 1.787731-138.579944-0.924688a82.79042 82.79042 0 0 1-48.576955-19.726683c-80.69446-75.577852-104.119895-193.13655-61.152716-297.62632 37.603988-91.48249 139.073111-167.800092 253.056348-163.79311 109.483087 3.883691 206.575352 65.036406 246.891759 163.79311 42.289075 103.811666 18.493765 222.973157-61.645883 297.687966a83.037004 83.037004 0 0 1-48.576955 19.665037c-46.850871 2.774065-94.194908 0.924688-141.415654 0.924688z m52.830521-391.20477c66.577553 30.453066 109.483087 74.899747 123.599994 139.689569 13.747032 63.18703 1.849376 123.291765-45.926182 179.759394 68.920097-36.001195 100.236205-116.449072 81.002689-192.643383-18.370473-72.742141-84.084984-128.408373-158.676501-126.682288zM543.531746 993.731872c-6.164588-4.068628-11.219551-7.089276-15.781346-10.849676-80.139647-66.146032-79.769772-71.077702-5.424838-142.278696 16.521096-15.842992 28.048877-15.966284 43.152118 0.616459 15.7197 17.507431 32.672318 33.843589 49.748227 49.99481 13.130573 12.329176 14.116907 23.178852 0.554813 36.001196-18.493765 17.507431-36.124487 36.186133-54.49496 53.940147a145.66922 145.66922 0 0 1-17.754014 12.57576z" fill="#D7D7D7" p-id="2194"></path></svg>