<?xml version="1.0" standalone="no"?><!DOCTYPE svg PUBLIC "-//W3C//DTD SVG 1.1//EN" "http://www.w3.org/Graphics/SVG/1.1/DTD/svg11.dtd"><svg t="1593434522485" class="icon" viewBox="0 0 1024 1024" version="1.1" xmlns="http://www.w3.org/2000/svg" p-id="6536" width="48" height="48" xmlns:xlink="http://www.w3.org/1999/xlink"><defs><style type="text/css"></style></defs><path d="M0 511.951237C0 229.226166 229.226166 0 511.951237 0s511.951237 229.226166 511.951236 511.951237-229.226166 511.951237-511.951236 511.951236S0 794.676307 0 511.951237z" fill="#8EC8E0" p-id="6537"></path><path d="M431.882063 1015.455278c25.290391 4.761147 66.579258 8.447195 93.098333 8.447195 25.981525 0 51.220721-3.481268 76.024758-8.140024 1.715037-57.978478 3.737244-98.806589 5.298696-113.141224 5.861842-52.986953 40.060184-119.515016 59.232758-154.250907-18.967793-56.673002-13.259537-134.028834-13.259537-134.028834H380.302976s11.928464 25.674355-4.198 81.400247c-0.767927 2.815732-5.554671 28.413294-16.305647 52.628587-10.750976 24.215293 42.056794 119.028663 47.611465 169.353469 5.554671 50.350404 22.730635 39.932196 24.471269 97.731491z" fill="#F4B58A" p-id="6538"></path><path d="M659.828351 588.743922H381.147696s1.740634 57.927282-3.788439 102.697418c25.188001 55.188343 131.494675 131.750651 168.099188 145.266164 46.459575 17.099171 114.369906 1.484659 114.369906 1.484658 31.587391-5.733854 36.911684-28.669269 15.921684-68.806246-31.485001-60.15427-15.921683-180.641994-15.921684-180.641994zM327.827974 451.899357s-24.727245-73.362612-57.543319-63.021198c-32.739282 10.264622-9.163927 155.326005 69.139015 172.629957 78.430929 17.380744-11.595696-109.60876-11.595696-109.608759z m362.922232-10.034245s28.182916-72.133929 66.502466-55.367526c38.447538 16.766403-37.090867 163.389237-67.654356 173.551469-30.512294 10.085439 1.15189-118.183943 1.15189-118.183943z" fill="#D78562" p-id="6539"></path><path d="M334.816109 560.023458c20.222074 72.748271 108.021711 132.851346 118.900674 142.143261 4.044415 3.455671 45.35888 14.693 62.842015 14.565012 29.949147-0.230378 73.925759-20.78522 80.453137-25.08561 10.39261-6.860147 81.963393-87.441271 90.205808-112.450089 8.165622-25.060013 25.699952-96.17004 25.571964-160.291933-0.153585-63.993905-1.433463-190.189884-46.280392-207.186665-44.846928-16.945586-125.837614 2.662146-212.792532 1.382268-86.878125-1.331073-126.09359-1.817427-129.779638 20.017294-3.711646 21.962708-15.896086 56.05866-15.896086 56.05866s6.655366 198.406702 26.800647 270.847802z" fill="#F4B58A" p-id="6540"></path><path d="M516.558798 716.731731c29.949147-0.230378 73.925759-20.78522 80.453137-25.08561 10.39261-6.860147 81.963393-87.441271 90.205808-112.450089 8.165622-25.060013 25.699952-96.17004 25.546366-160.291933-0.127988-63.993905-1.407866-190.189884-46.254794-207.186665-22.67944-8.575183-73.106637-8.754366-151.28159-0.511951 0.895915 286.283132 1.331073 454.817479 1.331073 505.526248z" fill="#F5AE7E" p-id="6541"></path><path d="M297.1109 329.338231c-3.762842-86.519759 21.809123-113.448394 21.809123-113.448395s16.536025-23.524159 39.164269-33.27683c0 0 20.734025-63.661136 63.481954-72.057136 42.645538-8.447195 95.32532-12.030854 148.13309-2.406171 52.884563 9.727073 116.392114 30.205123 171.65725 16.68961 0 0 45.973221 32.176135 16.971183 92.151223-29.07883 60.15427-29.693172 54.164441-29.693171 54.16444s16.203257 118.516711-20.452452 209.132081c0 0-4.351586-209.13208-45.768441-230.736423-41.391257-21.578745-68.524673 23.472964-146.520444 23.805733-77.944576 0.307171-109.941528-16.049671-109.941528-16.049671s-26.288696-6.39939-36.450928 3.686048c-26.826245 26.595867-47.099514 92.893552-47.099514 157.860164v70.316503s-21.553147-73.055441-25.290391-159.831176z" fill="#000000" p-id="6542"></path><path d="M512.616773 947.442556c55.393124 0.383963 94.762174-12.414817 109.148004-25.290391-0.153585 48.123416-1.561451 79.122064-4.249195 93.02154-40.546538 6.834549-79.070868 9.675878-116.059346 8.728768-41.724026-1.0495-81.502637-6.757756-120.30854-14.129854l28.362098-87.03171a227.178361 227.178361 0 0 0 103.106979 24.701647z" fill="#EBF3F6" p-id="6543"></path><path d="M875.897371 871.264212c-72.005941-26.519074-155.07003-69.318197-183.022567-90.666564-13.003561-9.983049-21.706732-19.070184-28.310904-35.734196-21.220379 32.508904-53.575697 91.536881-66.195295 140.018663-18.046281 69.2926-6.808951 79.608417-8.677573 133.849651 152.305493-31.843367 212.203788-78.942881 286.180741-147.467554zM145.9317 870.317102c70.393295-27.261403 159.293627-74.33532 186.606226-96.27243 12.721988-10.29022 25.341586-19.607732 31.792172-36.758099 20.734025 33.404818 48.277002 94.122235 60.615026 143.935091 17.662318 71.263612 6.655366 81.861003 8.472793 137.63809-148.926615-32.764879-215.12191-78.072564-287.460619-148.542652z" fill="#1D334B" p-id="6544"></path><path d="M587.9248 1018.731766c19.73572-3.097305 58.720807-12.721988 77.611808-17.918293 70.265307-48.277002 86.417369-133.619273 102.748613-176.443994A1570.256833 1570.256833 0 0 1 716.731731 796.442539c-15.204952-8.600781-43.746233-33.891172-51.655879-50.427197a29.769964 29.769964 0 0 1-0.819122-1.791829c-21.066793 31.971355-69.087819 102.774211-75.512808 151.537566-1.791829 13.464318-0.819122 76.562307-0.819122 122.970687zM434.902576 1018.859754c-19.582135-3.174098-58.234453-13.054757-76.997466-18.37905-69.702161-49.531282-85.751832-137.049346-101.929492-180.974762 26.903037-14.641805 24.036111-12.030854 52.065441-28.746062 28.02933-16.715208 56.05866-52.858965 56.289039-53.498904 20.913208 32.841672 63.379563 105.461955 69.753356 155.505188 1.791829 13.771488 0.819122 78.482125 0.819122 126.09359z" fill="#4B7499" p-id="6545"></path></svg>