<?xml version="1.0" standalone="no"?><!DOCTYPE svg PUBLIC "-//W3C//DTD SVG 1.1//EN" "http://www.w3.org/Graphics/SVG/1.1/DTD/svg11.dtd"><svg t="1591760108042" class="icon" viewBox="0 0 1050 1024" version="1.1" xmlns="http://www.w3.org/2000/svg" p-id="22906" width="16.40625" height="16" xmlns:xlink="http://www.w3.org/1999/xlink"><defs><style type="text/css"></style></defs><path d="M5.198 187.127v-25.99c10.916-20.792 28.589-27.03 51.46-26.51 66.534 1.56 133.588 0.52 200.122 0.52 8.836 0 18.193-0.52 28.069-1.04V102.4c1.04-57.697 34.306-92.004 92.004-94.603 12.995-0.52 25.99 0 38.985 0 83.167 0 166.335-0.52 249.502 0 65.495 0.52 98.762 32.747 101.88 98.242 0.52 9.356 1.04 18.192 1.56 29.108 77.45 0 152.82 0.52 227.67-0.52 22.352-0.52 38.466 6.758 48.862 26.51v25.99c-14.555 20.272-35.866 24.43-59.257 23.39-30.148-1.039-59.777 0-92.524 0v658.064c0 61.336-21.832 109.677-78.49 138.266-15.593 7.797-33.786 11.435-50.94 17.153H285.889c-104.999-33.787-128.91-67.574-128.91-181.41V210.519c-34.826 0-66.533-1.04-98.24 0.52-22.352 0.52-40.545-4.679-53.54-23.911z m229.75 24.43c-0.52 9.877-1.04 17.154-1.04 24.95v639.35c0 45.223 24.95 70.173 71.213 70.173h439.228c47.302 0 71.732-24.95 71.732-72.251V211.557H234.948zM359.7 133.068H690.81c0-10.916-0.52-19.752 0-28.069 1.04-15.594-6.237-21.831-21.312-21.831-96.162 0.52-191.805 0-287.967 0-15.594 0-22.351 7.277-21.832 21.831v28.069z" fill="#7bcefa" p-id="22907"></path><path d="M764.102 1024c17.153-5.718 35.346-9.356 50.94-17.153 56.138-28.59 78.489-77.45 78.489-138.266V210.518c32.227 0 62.376-0.52 92.524 0 23.39 0.52 44.183-3.119 59.257-23.391V1024h-281.21zM5.198 187.127c12.995 19.232 31.188 24.43 53.54 23.91 31.707-1.559 63.414-0.52 98.24-0.52v632.074c0 113.316 23.911 147.622 128.91 181.409H5.198V187.127z m1039.594-25.99c-10.396-19.752-25.99-26.51-48.861-26.51-75.37 1.04-150.221 0.52-227.671 0.52-0.52-10.916-1.04-19.752-1.56-29.108-3.118-65.495-35.865-97.722-101.88-98.242-83.167-0.52-166.335 0-249.502 0-12.995 0-25.99-0.52-38.985 0-57.178 2.599-90.445 36.906-91.484 94.603v31.708c-9.876 0.52-19.233 1.04-28.07 1.04-66.533 0-133.067 1.039-200.121-0.52-22.871-0.52-40.544 5.717-51.46 26.51V5.197h1039.594v155.94z" fill="#FFFFFF" p-id="22908"></path><path d="M234.948 211.557h581.133V873.78c0 47.301-24.43 72.251-71.732 72.251-146.583 0.52-292.645 0-439.228 0-46.262 0-71.212-24.95-71.212-70.172v-639.35c0-7.797 0.52-15.074 1.04-24.95zM740.711 592.57V398.164c0-31.707-12.995-48.34-36.906-48.86-23.91-0.52-38.985 17.153-38.985 47.82-0.52 128.91-0.52 257.3 0 386.21 0 30.148 15.594 48.341 38.985 48.341 23.39-0.52 36.906-18.193 37.425-49.38-0.52-63.416-0.52-126.311-0.52-189.726z m-355.022-2.6c-0.52 0-0.52 0 0 0-0.52-66.533 0-133.587-0.52-200.121-0.52-24.95-16.113-40.544-37.945-40.544-21.831 0-36.385 15.593-37.945 41.064v387.248c0 6.758-0.52 14.035 0.52 20.792 4.158 20.272 16.633 33.267 37.425 32.747 20.272-0.52 33.787-12.475 36.906-33.267 1.56-8.316 1.04-17.153 1.04-25.99 0.52-60.816 0.52-121.112 0.52-181.928z m176.731 1.04V393.486c0-27.549-13.514-43.663-36.385-44.182-23.391-0.52-37.946 16.633-37.946 45.222v392.447c0 27.029 14.035 44.182 36.386 44.702 22.871 0.52 37.945-16.633 37.945-45.222V591.009zM359.7 133.068v-28.069c-0.52-15.074 6.237-21.831 21.831-21.831h287.967c15.594 0 22.352 6.237 21.312 21.831-0.52 8.837 0 17.153 0 28.069H359.7z" fill="#FFFFFF" p-id="22909"></path><path d="M740.71 592.569v189.206c0 31.187-13.514 48.86-37.425 49.38-23.39 0.52-38.465-17.673-38.984-48.34 0-128.91-0.52-257.3 0-386.21 0-30.668 15.074-48.341 38.984-47.821 24.43 0.52 36.906 17.153 36.906 48.86 0.52 65.495 0.52 130.47 0.52 194.925z m-355.02-2.6V771.9c0 8.836 0.52 17.673-1.04 25.99-3.119 20.791-16.634 32.747-36.906 33.266-20.792 0.52-33.267-12.475-37.425-32.747-1.56-6.757-0.52-14.034-0.52-20.792V390.368c1.56-25.47 15.594-40.545 37.945-41.064 21.312 0 37.426 15.593 37.945 40.544 0 66.534-0.52 133.588 0 200.122-0.52 0-0.52 0 0 0z m176.73 1.04v194.924c0 28.589-15.074 45.742-37.945 45.222-22.351-0.52-36.386-17.153-36.386-44.702V394.006c0-28.589 14.555-45.742 37.946-45.222 22.87 0.52 36.385 16.633 36.385 44.182V591.01z" fill="#7bcefa" p-id="22910"></path></svg>