<?xml version="1.0" standalone="no"?><!DOCTYPE svg PUBLIC "-//W3C//DTD SVG 1.1//EN" "http://www.w3.org/Graphics/SVG/1.1/DTD/svg11.dtd"><svg t="1592887130286" class="icon" viewBox="0 0 1024 1024" version="1.1" xmlns="http://www.w3.org/2000/svg" p-id="4782" xmlns:xlink="http://www.w3.org/1999/xlink" width="48" height="48"><defs><style type="text/css"></style></defs><path d="M613.43198106 311.88066787L344.93556113 153.21718407 75.38902138 650.78281602l24.63007149 209.49880693 242.57756601-48.49642002z m-453.84248233 466.44391406l-13.41288808-113.93794687 225.20286386-415.75179024 150.11933203 88.68735088-223.91408144 413.41288799zM405.36515498 127.77565625l212.12410518 125.39379463c38.99761347 23.05489219 74.89260175-37.5179001 35.84725575-60.62052481L441.21241074 67.15513143c-38.99761347-23.05489219-74.89260175 37.5179001-35.84725576 60.62052482zM906.79713594 719.47016738h-246.44391416c-45.29832979 0-45.39379482 70.40572823-1e-8 70.40572734h246.44391417c45.29832979 0 45.3460623-70.40572823 0-70.40572734zM746.41527442 617.79952285h168.01909277c45.29832979 0 45.39379482-70.40572823 0-70.40572822h-168.01909277c-45.29832979 0-45.39379482 70.40572823-1e-8 70.40572822zM914.43436719 891.59427177H140.16229121c-45.29832979 0-45.39379482 70.40572823 1e-8 70.40572823h774.27207597c45.48925987 0 45.53699326-70.40572823 0-70.40572822z" p-id="4783" fill="#5aa6ff"></path></svg>