<?xml version="1.0" standalone="no"?><!DOCTYPE svg PUBLIC "-//W3C//DTD SVG 1.1//EN" "http://www.w3.org/Graphics/SVG/1.1/DTD/svg11.dtd"><svg t="1593174142996" class="icon" viewBox="0 0 1024 1024" version="1.1" xmlns="http://www.w3.org/2000/svg" p-id="14274" width="16" height="16" xmlns:xlink="http://www.w3.org/1999/xlink"><defs><style type="text/css"></style></defs><path d="M396.209231 590.690462V329.728c0-27.332923 20.795077-49.703385 46.316307-49.703385h155.411693c25.521231 0 46.473846 22.370462 46.473846 49.624616V590.769231h122.88c25.521231 0 46.473846 22.370462 46.473846 49.703384a55.768615 55.768615 0 0 1-12.839385 34.816l-250.486153 277.110154a45.056 45.056 0 0 1-66.166154 1.260308l-1.181539-1.260308L233.787077 675.209846a53.326769 53.326769 0 0 1 1.102769-70.892308 43.953231 43.953231 0 0 1 32.531692-13.627076h128.708924z m220.317538-369.112616H419.288615c-12.760615 0-23.158154-11.106462-23.158153-24.812308 0-13.705846 10.397538-24.891077 23.158153-24.891076h197.238154c12.681846 0 23.158154 11.185231 23.158154 24.891076 0 13.627077-10.476308 24.812308-23.158154 24.812308z m0-99.406769H419.288615c-12.760615 0-23.158154-11.106462-23.158153-24.812308 0-13.705846 10.397538-24.891077 23.158153-24.891077h197.238154c12.681846 0 23.158154 11.185231 23.158154 24.891077 0 13.627077-10.476308 24.812308-23.158154 24.812308z" fill="#1296db" p-id="14275"></path></svg>