<?xml version="1.0" standalone="no"?><!DOCTYPE svg PUBLIC "-//W3C//DTD SVG 1.1//EN" "http://www.w3.org/Graphics/SVG/1.1/DTD/svg11.dtd"><svg t="1592374476974" class="icon" viewBox="0 0 1024 1024" version="1.1" xmlns="http://www.w3.org/2000/svg" p-id="29198" data-spm-anchor-id="a313x.7781069.0.i56" xmlns:xlink="http://www.w3.org/1999/xlink" width="48" height="48"><defs><style type="text/css"></style></defs><path d="M624.925564 879.177171h-229.757829a159.43426 159.43426 0 0 1-159.275197-159.257523v-229.757829a159.416586 159.416586 0 0 1 159.275197-159.257523H625.809248a159.416586 159.416586 0 0 1 159.257523 159.257523v230.712208c0 86.866133-72.373716 158.303145-160.211901 158.303144z" fill="#deaa57" p-id="29199" data-spm-anchor-id="a313x.7781069.0.i55" class=""></path><path d="M511.990754 1023.959951A28.43695 28.43695 0 0 1 483.023594 995.028139V236.350112a28.96716 28.96716 0 1 1 57.916647 0V995.028139a28.43695 28.43695 0 0 1-28.949487 28.96716z" fill="#5aa6ff" p-id="29200" data-spm-anchor-id="a313x.7781069.0.i57" class=""></path><path d="M899.998707 495.994133H123.965128A74.370842 74.370842 0 0 1 49.647307 421.658638v-139.957865a74.353168 74.353168 0 0 1 74.317821-74.229453h776.033579a74.353168 74.353168 0 0 1 74.317821 74.229453v139.957865a74.353168 74.353168 0 0 1-74.317821 74.335495zM123.965128 265.299598a16.259785 16.259785 0 0 0-16.401175 16.401175v139.957865a16.277459 16.277459 0 0 0 16.401175 16.418848h776.033579a16.277459 16.277459 0 0 0 16.418848-16.418848v-139.957865a16.259785 16.259785 0 0 0-16.418848-16.401175z" fill="#5aa6ff" p-id="29201" data-spm-anchor-id="a313x.7781069.0.i54" class=""></path><path d="M854.648046 1023.959951H169.333462a74.353168 74.353168 0 0 1-74.229453-74.229452V512.395307a74.353168 74.353168 0 0 1 74.317821-74.317821h684.254164A74.353168 74.353168 0 0 1 928.029162 512.395307v436.274771a73.752263 73.752263 0 0 1-73.345768 75.289873zM169.333462 495.994133a16.259785 16.259785 0 0 0-16.401174 16.401174v436.274771a16.259785 16.259785 0 0 0 16.401174 16.401174h684.342532a16.259785 16.259785 0 0 0 16.401174-16.401174V512.395307a16.259785 16.259785 0 0 0-16.401174-16.401174zM510.04665 265.299598A28.808097 28.808097 0 0 1 482.069215 242.129405c-8.69545-42.41683-54.046111-94.589531-115.833293-134.160899-43.441903-27.023055-90.718995-45.368334-130.308037-48.266818C203.125537 56.803205 178.983291 63.625245 169.333462 78.046967c-15.446796 24.124572 7.723398 82.041219 72.462085 135.132951a28.790423 28.790423 0 0 1-36.672885 44.396283c-85.010397-71.419338-118.802472-155.404661-84.056018-211.377204C142.310407 12.371575 185.734636-3.994251 241.724852 0.830663c49.221197 4.824914 104.274707 25.096624 156.35904 57.916647 75.289873 47.294766 129.353658 112.917136 140.929918 170.833783a30.186644 30.186644 0 0 1-22.198141 34.746453c-2.898483 0-4.824914 0.972052-6.769019 0.972052z" fill="#5aa6ff" p-id="29202" data-spm-anchor-id="a313x.7781069.0.i52" class="selected"></path><path d="M510.04665 265.299598a12.124144 12.124144 0 0 1-5.779294-0.972052 28.454624 28.454624 0 0 1-22.198141-34.746453c12.548312-57.916647 66.594423-123.539018 140.912245-170.833783C738.814753-14.616133 857.528856-19.441047 899.998707 46.198997c34.746453 55.018163 0.972052 139.957866-83.96765 211.377204a28.790423 28.790423 0 0 1-36.690558-44.396283c64.685666-54.063785 87.838186-111.008379 72.462085-135.132951-20.27171-31.812623-108.109896-25.096624-196.90246 30.893592C593.996626 147.539874 548.663639 199.712575 539.01381 243.101457c-2.898483 12.548312-15.446796 22.198141-28.96716 22.198141z" fill="#5aa6ff" p-id="29203" data-spm-anchor-id="a313x.7781069.0.i53" class="selected"></path></svg>