<?xml version="1.0" standalone="no"?><!DOCTYPE svg PUBLIC "-//W3C//DTD SVG 1.1//EN" "http://www.w3.org/Graphics/SVG/1.1/DTD/svg11.dtd"><svg t="1593085506146" class="icon" viewBox="0 0 1024 1024" version="1.1" xmlns="http://www.w3.org/2000/svg" p-id="13567" xmlns:xlink="http://www.w3.org/1999/xlink" width="48" height="48"><defs><style type="text/css"></style></defs><path d="M427.573246 570.148736l5.362861 1.379021c2.451594 0.612898 4.749963 0.459674 6.741882-0.766123s3.370941-3.064492 3.98384-5.516086l8.733802-32.790064-13.790214-3.67739-11.032171 41.370642z m18.080502-67.418824l13.790214 3.67739 9.346701-35.088433-13.790214-3.677391-9.346701 35.088434z m-176.208289-256.191531c85.192877-72.168786 203.175819-102.966931 319.320065-71.862337 118.442616 31.717492 206.54676 120.281311 242.860991 228.457878 30.491695-11.491845 66.039802-15.169235 94.539578-7.967679l-13.024091-13.943439 6.895107-52.862487-43.515786-30.032021-4.137064-53.015712-48.725423-20.378872-15.016011-51.023791-51.943139-9.65315-25.128835-46.733503-52.862486 1.379021-34.169086-40.144845-51.483466 12.411193-41.830315-32.330391-47.806076 22.98369-47.65285-22.830465-41.98354 32.483615-51.330241-12.257968-34.475535 40.451294-52.862487-1.225796-25.435284 46.886727-51.943139 9.806374-10.266048 34.322311c0.306449-0.306449 0.919348-0.612898 1.225797-0.919348 28.959449 1.072572 55.160856 11.951519 80.749364 37.999701z m132.232829 244.393237l13.63699 3.67739 9.3467-35.241658-13.636989-3.67739-9.346701 35.241658z m-17.927278 67.418823l13.636989 3.677391 11.032172-41.217418-13.63699-3.67739-11.032171 41.217417zM94.462966 361.456831c32.330391-9.040251 60.676941-11.33862 87.184797-2.604818 14.096663-28.499776 31.870717-54.547958 52.402813-77.684872-27.733653-21.604669-65.886578-30.951369-100.668562-29.572348l-3.98384 48.418973-43.515786 30.338471 4.903187 37.846476c1.532246-2.298369 2.911267-4.443513 3.677391-6.741882z m674.494688 378.464761c-85.192877 102.813706-225.240162 152.458477-362.682628 115.684573-139.281161-37.386802-236.425557-153.071375-257.110878-286.836451-23.290139-14.709562-49.797995-15.475685-78.144546-9.806374l2.451594 3.983839-17.620829 50.257669 36.31423 38.612599-6.895107 52.862487 43.515786 30.185246 4.137064 53.015712 48.725423 20.378872 15.016011 51.023791 51.943139 9.65315 25.128834 46.733503 52.862487-1.379021 34.322311 40.451294 51.483465-12.411193 41.830316 32.330391 47.806075-22.98369 47.652851 22.830465 41.98354-32.483615 51.330241 12.257968 34.475535-40.451294 52.862487 1.225797 25.435283-46.733503 51.943139-9.806375 15.169236-51.023791 48.878647-20.532097 1.379022-16.854706c-27.120754-29.419123-64.507556-44.741583-104.192728-30.185246zM145.027084 513.149184a351.910938 351.910938 0 0 1 17.314379-106.644321c-28.346551-9.193476-60.983391-6.588658-94.846027 3.370941l-11.33862 11.951519 17.467604 50.104444-18.99985 31.104594c28.653-3.67739 60.676941-1.379021 90.402514 10.112823zM576.814006 219.111178c-163.490648-43.822236-331.578034 53.168936-375.247045 216.659584-43.822236 163.490648 53.168936 331.578034 216.659584 375.400269C581.717193 854.993266 749.804579 758.002095 793.47359 594.511447c43.822236-163.490648-53.168936-331.578034-216.659584-375.400269z m-8.733802 236.425557l8.580577 45.660931-43.515786-11.64507-8.580578-45.660931 43.515787 11.64507z m-273.659136 133.152177l-34.169085-9.193476 16.548256-61.749514-33.249738-8.887026 69.563969-70.483316-41.523867-11.185396 7.048332-26.354631 20.532096 5.516085-3.524166-22.983689 38.152926 10.266048 3.830615 22.98369 35.854556 9.653149-45.201257 46.886728 20.225647 5.362861-1.99192 73.394583L316.638635 543.947329l1.225797-43.362562-23.443364 88.104145z m176.821188 1.532246a30.507018 30.507018 0 0 1-19.765973 11.491845c-3.98384 0.612898-7.967679 0.306449-12.104743-0.766123l-18.540177-4.903187-6.435433 24.209487-30.338471-8.120904 6.435433-24.209487-47.65285-12.717642 41.523866-154.756845 47.652851 12.717641 3.67739-13.636989 30.338471 8.120904-3.67739 13.636989 47.959299 12.870867-33.556187 125.490947c-1.379021 3.830615-3.064492 7.508005-5.516086 10.572497z m67.878498 63.741434l-21.451444-5.822535a28.959449 28.959449 0 0 1-10.878946-5.362861c-3.217717-2.451594-5.66931-5.362861-7.66123-8.887027-1.99192-3.370941-3.217717-7.048332-3.830615-11.185396-0.612898-3.98384-0.306449-7.967679 0.766123-12.104743l21.757893-81.055813-15.475685-4.137065 7.048332-26.354631 15.475684 4.137065 36.467455 9.806374 0.612899 0.153224-28.193327 105.265301c-0.612898 2.298369-0.306449 4.443513 0.919348 6.588657 1.225797 1.99192 3.064492 3.370941 5.362861 3.98384l15.782134 4.290289-16.701482 20.685321z m206.393536-122.57968l-60.523717-16.241808-21.757893 81.055814 66.346252 17.774053-7.048332 26.354631-66.346252-17.774053-15.628909 58.685021-37.080353-9.959599 15.628909-58.685021-67.725273-18.080503 7.048332-26.354631 67.725273 18.080503 21.757893-81.055814-61.749514-16.548256 7.048332-26.354632 159.353584 42.749664-7.048332 26.354631z m2.451594 13.177315L715.482268 597.575939l-38.612599-10.419273 32.483615-53.015711 38.6126 10.419272z m-169.466408-41.370641l38.765824 10.419272 2.911267 58.531797-38.612599-10.419272-3.064492-58.531797z m380.609906 12.411192l-27.427203-45.354481 9.806374-28.040102c-26.354631-17.467604-61.443064-12.257968-98.063744 6.128984 5.975759 30.798145 7.814455 62.515637 5.209637 94.692802 31.564268 3.370941 62.668861 16.088583 88.410594 34.169086l-5.669311-16.241807 27.733653-45.354482z m-115.837797 67.112375c-1.532246 7.814455-3.217717 15.782134-5.362861 23.596588-7.66123 28.499776-18.693401 55.314081-32.330391 79.983241 30.798145 1.532246 58.838246 15.475685 82.588059 37.846476l31.104594-21.604668-6.741882-52.709263 20.685321-21.911117c-24.209487-32.483615-55.62053-47.9593-89.94284-45.201257z" fill="#d81e06" opacity=".5" p-id="13568"></path></svg>