<?xml version="1.0" standalone="no"?><!DOCTYPE svg PUBLIC "-//W3C//DTD SVG 1.1//EN" "http://www.w3.org/Graphics/SVG/1.1/DTD/svg11.dtd"><svg t="1592374090197" class="icon" viewBox="0 0 1024 1024" version="1.1" xmlns="http://www.w3.org/2000/svg" p-id="21985" data-spm-anchor-id="a313x.7781069.0.i45" xmlns:xlink="http://www.w3.org/1999/xlink" width="48" height="48"><defs><style type="text/css"></style></defs><path d="M104.556842 476.07644c15.426419 4.856465 30.995676 7.141861 46.422095 7.141861 46.564932 0 90.844469-21.282745 119.983261-57.134886 18.711675 22.996792 43.851025 40.708607 73.132655 49.850188 39.280234 12.426838 81.131539 8.71307 117.840703-10.427117 18.99735-9.855768 35.42363-23.282466 48.564653-39.423071 18.711675 22.996792 43.851025 40.708607 73.132655 49.850188 15.426419 4.856465 31.709862 7.284698 47.993304 7.284698 29.567304 0 59.420282-7.856047 85.130981-23.139629 14.569396-8.570233 27.139071-19.140187 37.280513-31.138513 16.569117 19.854373 39.423072 36.42349 72.704143 46.993444h0.142837c39.280234 12.426838 80.703027 8.570233 116.555168-10.712791 35.280792-18.99735 61.56284-51.135723 73.989678-90.273121 8.427396-26.710559 9.427256-55.135165 2.856744-82.274236-0.428512-3.285256-1.142698-6.427675-2.428232-9.570093L911.587111 22.711117C905.873623 8.998745 892.589761 0 877.591854 0h-731.326545C131.410239 0 117.98354 8.998745 112.412889 22.853955L7.284698 283.389036c-0.571349 1.285535-0.999861 2.57107-1.285535 3.856605-22.56828 81.417213 20.711396 164.262798 98.557679 188.830799z m-28.567443-167.405217l95.129586-235.538569h682.047705l95.129586 233.110337c0 0.285674 0.142837 0.428512 0.142837 0.714186 4.285116 15.140745 3.999442 31.138513-0.714186 46.13642-10.998466 34.852281-41.56563 56.849212-75.132376 56.849212-7.71321 0-15.712094-1.142698-23.56814-3.713767-34.423769-10.998466-49.136002-28.995955-61.991352-76.417911-2.285395-16.854791-15.997768-30.28149-33.423908-31.709862-18.99735-1.428372-35.994978 11.998326-38.99456 30.852839l-4.427954 28.853118c-4.570791 21.139908-20.997071 33.709583-30.567164 39.280234-21.996931 12.998187-50.2787 16.42628-73.989678 8.998744-32.138374-10.141442-54.992328-39.708746-56.849212-73.561166-0.999861-17.854652-14.712233-32.424048-32.424048-34.423769-1.428372-0.142837-2.713907-0.285674-4.142279-0.285674-16.140605 0-30.567164 10.712791-35.137955 26.567722l-8.998745 28.567443c-6.570512 20.568559-20.711396 37.566188-40.137257 47.564793-19.425861 10.141442-41.422793 11.998326-61.991352 5.570651-32.138374-10.141442-54.992328-39.708746-56.849212-73.561166-0.999861-17.854652-14.712233-32.424048-32.424048-34.423769-17.711815-1.999721-34.280932 9.141582-39.280234 26.282048l-8.998745 28.567443c-13.569536 42.851165-59.277445 66.70498-102.128609 53.135444-39.280234-12.141163-61.134328-54.849491-50.2787-97.414981zM944.439671 535.353885c-42.851165-20.282885-98.843353-31.424187-157.835124-31.424188s-115.126796 11.141303-157.835123 31.424188c-51.421398 24.425164-79.846004 60.134468-79.846004 100.5574 0 19.568699 6.570512 37.851862 19.283024 54.563816-12.569675 18.283164-19.283024 38.566048-19.283024 59.134607 0 22.425443 7.856047 44.422374 22.711118 63.991073-14.85507 19.568699-22.711117 41.422793-22.711118 63.991073 0 22.853955 8.141721 45.279397 23.425304 65.13377 13.283861 17.140466 31.567025 31.995536 54.420979 44.565212 43.279676 23.568141 99.986051 36.566327 159.692007 36.566327s116.412331-12.998187 159.692007-36.566327c22.853955-12.569675 41.279955-27.424745 54.42098-44.565212 15.426419-19.854373 23.425303-42.279816 23.425303-65.13377 0-22.425443-7.856047-44.422374-22.711117-63.991073 14.85507-19.568699 22.711117-41.708467 22.711117-63.991073 0-20.711396-6.713349-40.851444-19.283024-59.134607 12.569675-16.569117 19.283024-34.995118 19.283024-54.563816 0.285674-40.422932-28.138932-76.132236-79.560329-100.5574z m6.713349 214.255823c0 14.85507-14.85507 31.852699-39.851583 45.422235-32.281211 17.568978-77.703445 27.71042-124.69689 27.71042s-92.415679-10.141442-124.696889-27.71042c-24.996513-13.569536-39.851583-30.567164-39.851583-45.422235 0-4.999303 1.714047-9.855768 4.142279-14.426558 0.857023 0.428512 1.571209 0.857023 2.428233 1.142697 42.851165 20.282885 98.843353 31.424187 157.835123 31.424188s115.126796-11.141303 157.835124-31.424188c0.857023-0.428512 1.571209-0.857023 2.428232-1.142697 2.713907 4.570791 4.427954 9.427256 4.427954 14.426558zM660.050774 601.487516c32.709722-15.569257 78.846143-24.425164 126.553773-24.425164 47.70763 0 93.844051 8.855907 126.553774 24.425164 26.282048 12.426838 37.994699 26.282048 37.994699 34.423769s-11.712652 21.996931-37.994699 34.423769c-32.709722 15.569257-78.846143 24.425164-126.553774 24.425164-47.70763 0-93.844051-8.855907-126.553773-24.425164-26.282048-12.426838-37.994699-26.282048-37.994699-34.423769s11.712652-21.996931 37.994699-34.423769zM911.301437 923.014088c-32.281211 17.568978-77.703445 27.71042-124.69689 27.71042s-92.415679-10.141442-124.696889-27.71042c-24.996513-13.569536-39.851583-30.567164-39.851583-45.422234 0-6.284837 2.57107-12.284001 6.142-17.568978 43.136839 23.139629 99.271865 35.852141 158.406472 35.852141 59.134607 0 115.269633-12.712512 158.406473-35.852141 3.57093 5.284977 6.142 11.28414 6.142 17.568978 0 14.85507-14.997908 31.852699-39.851583 45.422234zM539.781838 950.867346h-429.940019V513.071279c0-20.140047-16.42628-36.566327-36.566327-36.566327-20.140047 0-36.566327 16.42628-36.566328 36.566327v474.362394c0 20.140047 16.42628 36.566327 36.566328 36.566327h466.506346c20.140047 0 36.566327-16.42628 36.566328-36.566327 0-20.282885-16.42628-36.566327-36.566328-36.566327z" p-id="21986" data-spm-anchor-id="a313x.7781069.0.i44" class="" fill="#5aa6ff"></path><path d="M256.392802 209.685033h511.928582c20.140047 0 36.566327-16.42628 36.566327-36.566327 0-20.140047-16.42628-36.566327-36.566327-36.566328H256.392802c-20.140047 0-36.566327 16.42628-36.566327 36.566328 0 20.140047 16.42628 36.566327 36.566327 36.566327z" p-id="21987" data-spm-anchor-id="a313x.7781069.0.i46" class="selected" fill="#deaa57"></path></svg>