<?xml version="1.0" standalone="no"?><!DOCTYPE svg PUBLIC "-//W3C//DTD SVG 1.1//EN" "http://www.w3.org/Graphics/SVG/1.1/DTD/svg11.dtd"><svg t="1591759709945" class="icon" viewBox="0 0 1024 1024" version="1.1" xmlns="http://www.w3.org/2000/svg" p-id="10537" xmlns:xlink="http://www.w3.org/1999/xlink" width="48" height="48"><defs><style type="text/css"></style></defs><path d="M586.11551 696.591135v44.854581c0 17.432021 40.948621 39.866986 102.354156 39.866986s102.354156-22.434965 102.354155-39.866986v-44.854581c-25.028023 17.433044-63.699788 27.40414-102.354155 27.40414s-77.343529-9.971096-102.354156-27.40414zM688.469666 537.119097c-61.406558 0-102.354156 22.418592-102.354156 39.86801 0 17.432021 40.948621 39.850613 102.354156 39.850613s102.354156-22.418592 102.354155-39.850613c0-17.449417-40.947598-39.868009-102.354155-39.86801z" fill="#EBA12A" p-id="10538"></path><path d="M511.996418 1.450025c-281.95258 0-510.525416 228.572836-510.525415 510.524392 0 281.950534 228.572836 510.524392 510.525415 510.524393 281.951557 0 510.524392-228.573859 510.524393-510.524393 0-281.951557-228.572836-510.524392-510.524393-510.524392z m48.558949 805.504684H305.925063c-23.814382 0-43.209104-16.900925-43.209104-42.776246V603.311659c0-14.408151 6.897084-26.092261 20.041451-26.092262 13.145391 0 20.657482 11.68411 20.657483 26.092262v160.434969h221.277685c20.657482-0.016373 60.890812 43.208081 35.862789 43.208081z m253.003248-65.526389c0 42.360783-63.682391 64.795748-125.088949 64.795748s-125.08895-22.435988-125.08895-64.795748V576.969711c0-42.34441 63.682391-64.779376 125.08895-64.779376s125.08895 22.434965 125.088949 64.779376v164.458609z m-177.271426-363.283934H360.201224c-10.834766 0-19.627013-9.638521-19.627013-21.521153s8.791224-21.521153 19.627013-21.521152h276.085965c10.851139 0 19.642362 9.638521 19.642363 21.521152s-8.791224 21.521153-19.642363 21.521153z m157.826562 126.302591c-10.918677 9.904581-32.355919 2.393513-34.400485-7.328919-2.176572-14.226003 14.142092-18.530029 14.823614-53.446259 0.184195-8.442276-1.394766-16.868179-4.154623-25.093515-0.116657-0.598634-0.316202-1.230014-0.465604-1.828648l-0.049119-0.431835-57.651025-128.080074c-5.284353-15.505136-13.32754-16.369829-18.978237-16.73515l-390.954133-0.033769c-12.697183 0-16.568351 5.350868-20.141736 15.904225L228.247936 414.33975l-0.116657 0.431835a8.135284 8.135284 0 0 1-0.348947 1.312902 79.141478 79.141478 0 0 0-4.121878 25.193798c0.033769 28.650527 10.353812 47.130414 35.082007 60.524469l1.196245 0.697895h0.066514c9.505491 4.868891 21.088294 7.328919 34.400485 7.328919 26.257014-0.066515 65.394383-18.49626 79.353302-41.330314l0.199545-0.316202 0.149403-0.348948c0.730641-1.629103 2.758834-5.451152 5.368264-8.392134l0.13303-0.149402c2.942005-3.555989 8.010441-7.145747 14.307867-7.145748 6.614651 0 11.384281 3.872191 14.790868 8.010441l0.082888 0.116657c1.877767 2.111081 4.420683 5.451152 5.218861 7.195889l0.149403 0.316202 0.149403 0.199545c13.893428 22.934339 59.179844 44.305065 85.370343 44.421722 25.990954-0.199545 69.232804-20.773116 83.077113-43.64094l0.115634-0.23229 0.165776-0.233314c0.848321-1.828648 2.194992-4.6366 4.488221-7.262404l0.115633-0.13303c3.208065-4.071735 9.106402-7.960299 15.405875-7.960299 8.026814 0 10.70276 2.692319 13.311167 5.683443 2.460028 2.692319 7.379061 15.638165-6.946202 33.735335l-6.43148 8.242732-3.987824 4.786003c-30.478152 31.209816-68.369134 42.044582-99.31289 42.328037-31.043017-0.233314-64.547085-11.118222-101.540627-42.178634l-3.987825-4.868891-3.971451 4.868891c-20.025079 24.246217-68.950372 44.986587-100.193957 45.119616-17.615193 0-33.386388-3.423983-46.914496-10.120498l-3.904936-2.14485c-33.819247-18.911722-54.842049-55.006801-54.874795-94.343715 0-11.366885 1.778506-22.650883 5.284353-33.652447l0.100284-0.26606 0.066515-0.332574c0.13303-0.697895 0.282433-1.363044 0.481977-2.044566l58.962904-140.925637 0.066515-0.199544c7.163143-21.803585 27.204595-38.1069 52.382021-38.1069h393.861346c25.64303 0.033769 46.914496 17.166985 54.227042 39.303145l0.032745 0.149402 57.999972 138.699946c0.316202 0.730641 0.532119 1.512447 0.731664 2.459005l0.081865 0.183171c0 0.149403 0.017396 0.215918 0.017396 0.332575l0.066515 0.481977 0.165776 0.415462c3.390213 10.535961 5.151323 21.936615 5.101181 33.021068 0.002047 27.173896-2.523473 41.36613-19.808138 60.876486z" fill="#EBA12A" p-id="10539"></path><path d="M586.11551 614.361319v44.853557c0 17.450441 40.948621 39.869033 102.354156 39.869033s102.354156-22.418592 102.354155-39.869033v-44.853557c-25.028023 17.433044-63.699788 27.40414-102.354155 27.40414s-77.343529-9.970072-102.354156-27.40414z" fill="#EBA12A" p-id="10540"></path></svg>