<?xml version="1.0" standalone="no"?><!DOCTYPE svg PUBLIC "-//W3C//DTD SVG 1.1//EN" "http://www.w3.org/Graphics/SVG/1.1/DTD/svg11.dtd"><svg t="1592364054913" class="icon" viewBox="0 0 1024 1024" version="1.1" xmlns="http://www.w3.org/2000/svg" p-id="11843" xmlns:xlink="http://www.w3.org/1999/xlink" width="48" height="48"><defs><style type="text/css"></style></defs><path d="M20.757 318.27a318.27 318.27 0 1 0 636.54 0 318.27 318.27 0 1 0-636.54 0z" fill="#8CF6FB" p-id="11844"></path><path d="M853.795 871.784h-683.59C88.562 873.168 22.141 808.13 20.757 726.486c0-55.35 33.21-106.55 83.027-130.075V408.216C103.784 182.66 286.444 0 512 0s408.216 182.66 408.216 408.216v188.195c49.816 23.524 83.027 74.724 83.027 130.075-1.384 81.644-67.805 146.682-149.448 145.298z m22.14-218.638c-15.221-4.151-24.908-17.99-24.908-33.21v-211.72C851.027 221.406 698.811 69.19 512 69.19S172.973 221.405 172.973 408.216v211.72c0 15.22-11.07 29.059-24.908 33.21-34.595 8.303-58.12 38.746-58.12 73.34 1.385 42.898 35.98 77.492 80.26 76.109h684.973c42.898 1.383 78.876-33.211 80.26-76.109-1.384-34.594-24.908-65.037-59.503-73.34z" fill="#5aa6ff" p-id="11845" data-spm-anchor-id="a313x.7781069.0.i25" class="selected"></path><path d="M671.135 871.784c0 84.41-67.805 152.216-152.216 152.216s-152.216-67.805-152.216-152.216h304.432zM518.92 954.81c45.665 0 83.027-37.362 83.027-83.027H435.892c0 45.665 37.362 83.027 83.027 83.027z" fill="#D098FF" p-id="11846"></path></svg>