<?xml version="1.0" standalone="no"?><!DOCTYPE svg PUBLIC "-//W3C//DTD SVG 1.1//EN" "http://www.w3.org/Graphics/SVG/1.1/DTD/svg11.dtd"><svg t="1591759675271" class="icon" viewBox="0 0 1197 1024" version="1.1" xmlns="http://www.w3.org/2000/svg" p-id="9616" xmlns:xlink="http://www.w3.org/1999/xlink" width="56.109375" height="48"><defs><style type="text/css"></style></defs><path d="M974.979531 225.910405A121.63009 121.63009 0 0 1 941.279185 118.087466 73.214229 73.214229 0 0 0 899.312717 37.969662c-6.903575-3.088441-13.897986-6.086046-20.892398-9.083651a73.305065 73.305065 0 0 0-87.566398 27.250953 121.720926 121.720926 0 0 1-100.919364 53.593543 121.63009 121.63009 0 0 1-102.281913-54.683581 73.305065 73.305065 0 0 0-87.203052-28.340991c-6.358556 2.452586-12.717112 4.996008-18.984831 7.721103a72.66921 72.66921 0 0 0-43.147343 81.752861 121.993436 121.993436 0 0 1-146.519294 146.519294 72.66921 72.66921 0 0 0-81.75286 43.056506c-2.543422 5.99521-4.996008 11.99042-7.357758 18.167303a73.123392 73.123392 0 0 0 29.885213 88.202253A121.902599 121.902599 0 0 1 234.934468 617.688282a73.486738 73.486738 0 0 0-28.522665 89.201455c2.361749 5.7227 4.814335 11.445401 7.357758 17.077264a74.395103 74.395103 0 0 0 83.024572 42.874833A121.720926 121.720926 0 0 1 443.767609 907.456755a73.668411 73.668411 0 0 0 43.783199 81.752861c6.903575 2.906768 13.80715 5.541027 20.801561 8.084449a72.66921 72.66921 0 0 0 85.749667-27.795972 121.902599 121.902599 0 0 1 199.840327-4.360153 71.942518 71.942518 0 0 0 85.113812 26.160916c8.175286-3.270114 16.350572-6.812738 24.344185-10.537036a72.66921 72.66921 0 0 0 41.693959-78.573583 121.811763 121.811763 0 0 1 137.798989-141.614122 73.577575 73.577575 0 0 0 78.482746-42.96567c3.542624-7.993613 6.721902-16.078063 9.810343-24.253349a74.122594 74.122594 0 0 0-27.250953-85.477158 121.902599 121.902599 0 0 1 0-195.57101 73.577575 73.577575 0 0 0 26.524261-85.386321c-2.997605-7.993613-6.267719-15.89639-9.719507-23.70833a73.395902 73.395902 0 0 0-79.391111-42.874834 121.539253 121.539253 0 0 1-106.369556-34.427038zM845.719175 633.039652a201.202874 201.202874 0 1 1 0-245.258582 201.293711 201.293711 0 0 1 0 245.258582z" fill="#EDF1F7" p-id="9617"></path><path d="M533.786592 1024a95.014992 95.014992 0 0 1-32.973653-5.904373c-7.266921-2.634259-14.533842-5.450191-21.709927-8.356959a95.287501 95.287501 0 0 1-57.045329-106.278719 99.920163 99.920163 0 0 0-120.358379-115.180698 96.286703 96.286703 0 0 1-108.004613-55.319436c-2.634259-5.904373-5.268518-11.808747-7.721103-18.167302A95.83252 95.83252 0 0 1 222.853212 599.520979a99.920163 99.920163 0 0 0-1.998404-168.410893A95.014992 95.014992 0 0 1 181.704272 315.929389q3.542624-9.537834 7.630267-18.803158a94.01579 94.01579 0 0 1 107.187084-55.955292 99.920163 99.920163 0 0 0 119.904196-119.904195A93.924953 93.924953 0 0 1 472.38111 14.170496c6.540229-2.815932 13.171294-5.541027 19.80236-8.08445a95.923357 95.923357 0 0 1 113.54564 36.879624 99.920163 99.920163 0 0 0 83.387918 45.418256A99.920163 99.920163 0 0 0 772.1416 44.237381 94.742482 94.742482 0 0 1 886.050586 9.083651c7.357757 2.906768 14.624678 5.904373 21.891599 9.083651A95.196665 95.196665 0 0 1 962.898275 121.811763a99.920163 99.920163 0 0 0 27.250954 88.474762 99.920163 99.920163 0 0 0 87.203051 27.88681 95.287501 95.287501 0 0 1 103.553624 55.682781c3.63346 8.175286 6.994411 16.350572 10.173689 24.707532a95.378338 95.378338 0 0 1-33.882019 111.002217 99.920163 99.920163 0 0 0 0 160.144771 95.83252 95.83252 0 0 1 34.427038 111.002218c-3.179278 8.447796-6.540229 16.895591-10.173689 25.161714a95.741684 95.741684 0 0 1-101.646057 56.591147 99.920163 99.920163 0 0 0-112.818948 116.089062 95.287501 95.287501 0 0 1-54.501907 102.281912c-8.356959 3.90597-16.804755 7.53943-25.343387 10.991218a94.379136 94.379136 0 0 1-111.183891-33.609509 99.920163 99.920163 0 0 0-163.505721 3.63346 94.288299 94.288299 0 0 1-78.66442 42.148142zM324.317596 741.589284a143.885035 143.885035 0 0 1 141.159939 169.864278 51.322629 51.322629 0 0 0 30.430232 57.499512c6.631065 2.725095 13.262131 5.268518 19.984033 7.721103a50.595937 50.595937 0 0 0 59.770424-19.25734 143.975872 143.975872 0 0 1 236.174932-5.177681 49.869245 49.869245 0 0 0 59.043732 18.712321c7.902777-3.179278 15.62388-6.540229 23.344984-10.082853a51.140956 51.140956 0 0 0 29.249357-54.501907 143.975872 143.975872 0 0 1 162.688193-167.230019 51.776812 51.776812 0 0 0 54.501907-30.521068c3.270114-7.630267 6.358556-15.351371 9.083651-23.16331a52.140158 52.140158 0 0 0-19.52985-60.042935 144.7934 144.7934 0 0 1-58.044531-115.544043 142.613324 142.613324 0 0 1 57.862858-115.36237 51.867648 51.867648 0 0 0 19.166504-59.952098c-2.997605-7.630267-6.086046-15.169698-9.083651-22.618292a51.231793 51.231793 0 0 0-55.591945-29.976049 144.520891 144.520891 0 0 1-125.717733-40.240575 143.975872 143.975872 0 0 1-39.786392-127.171116A51.140956 51.140956 0 0 0 890.229066 58.044531c-6.631065-2.906768-13.352967-5.7227-20.07487-8.447795A51.140956 51.140956 0 0 0 808.476205 68.944913a143.703362 143.703362 0 0 1-119.086668 63.585558 143.340016 143.340016 0 0 1-120.176705-65.402289A51.504302 51.504302 0 0 0 508.715715 47.325823c-6.086046 2.361749-12.172093 4.814335-18.167302 7.357757a50.505101 50.505101 0 0 0-30.339395 56.500311 143.885035 143.885035 0 0 1-172.589373 172.589373 50.686774 50.686774 0 0 0-56.591147 30.339395c-2.452586 5.7227-4.814335 11.445401-6.994412 17.258937a51.05012 51.05012 0 0 0 20.892398 61.587155A143.885035 143.885035 0 0 1 247.015724 635.855584 51.685975 51.685975 0 0 0 227.122528 698.441941c2.270913 5.450191 4.541826 10.900381 6.994411 16.350572A52.140158 52.140158 0 0 0 291.888961 744.859399a146.700967 146.700967 0 0 1 32.428635-3.270115z m361.801827-7.81194A223.366983 223.366983 0 1 1 862.978112 646.574293a222.821964 222.821964 0 0 1-176.858689 87.203051z m0-402.496585a179.220438 179.220438 0 1 0 142.159141 70.034951 178.947929 178.947929 0 0 0-142.159141-70.034951zM845.719175 633.039652z" fill="#5E125C" p-id="9618"></path><path d="M550.318838 740.953429c0-6.721902 0-13.443804-0.999202-20.07487l-0.545019-5.45019c-0.635856-5.359354-1.453384-10.627872-2.452586-15.89639 0-1.271711 0-2.634259-0.726692-3.90597-1.271711-6.267719-2.906768-12.353766-4.723499-18.167302-0.726692-2.361749-1.635057-4.723499-2.452585-7.085248-1.362548-4.087643-2.815932-8.175286-4.45099-12.172093-0.999202-2.543422-2.180076-4.996008-3.270114-7.448594s-3.451787-7.357757-5.268518-10.991218-2.634259-4.905172-3.996806-7.266921-4.087643-6.903575-6.26772-10.264526l-4.541825-6.903575c-1.907567-2.725095-3.996807-5.268518-5.99521-7.902776s-5.7227-7.357757-9.083651-10.809545l-6.176883-6.812738c-3.179278-3.360951-6.631065-6.631065-9.992016-9.810344s-4.360153-4.087643-6.631066-5.99521c-3.815134-3.270114-7.81194-6.267719-11.808746-9.083651-2.08924-1.544221-4.087643-3.179278-6.26772-4.723498-5.541027-3.724297-11.263727-7.266921-17.077264-10.537036l-2.452586-1.54422h-0.908365c-5.268518-2.815932-10.809545-5.450191-16.350572-7.902777l-3.724297-1.544221c-5.813537-2.452586-11.627074-4.541826-17.622283-6.449392l-3.179278-0.999202c-5.541027-1.635057-11.172891-3.088441-16.804755-4.269316l-3.088441-0.726692c-6.176883-1.180875-12.535439-2.180076-18.984831-2.906768h-4.269316c-6.631065-0.635856-13.352967-0.999202-20.07487-0.999202a224.366185 224.366185 0 0 0-40.87643 3.90597 121.448417 121.448417 0 0 1-54.501907 92.653242 73.486738 73.486738 0 0 0-28.522665 89.201455c2.361749 5.7227 4.814335 11.445401 7.357758 17.077264a74.395103 74.395103 0 0 0 83.024572 42.874834 121.720926 121.720926 0 0 1 147.155149 139.434046 75.757651 75.757651 0 0 0-0.545019 22.164109 219.915196 219.915196 0 0 0 107.096248-188.667435z" fill="#EDF1F7" p-id="9619"></path><path d="M242.133948 739.288387m-163.342094 147.383902a220.006032 220.006032 0 1 0 326.684188-294.767804 220.006032 220.006032 0 1 0-326.684188 294.767804Z" fill="#ABCF79" p-id="9620"></path><path d="M241.838043 981.488512a241.443449 241.443449 0 0 1-179.492948-80.026967A22.073272 22.073272 0 0 1 95.137076 872.030515a197.93276 197.93276 0 0 0 327.465626-214.101658 199.840326 199.840326 0 0 0-30.066886-47.507496 196.570212 196.570212 0 0 0-52.412667-43.147343 197.569414 197.569414 0 0 0-179.220438-8.538633A197.841923 197.841923 0 0 0 44.177793 742.497649a21.982436 21.982436 0 0 1-21.709927 22.345782A21.800763 21.800763 0 0 1 0.031248 743.133505a242.079305 242.079305 0 0 1 260.519116-245.258583 245.258582 245.258582 0 0 1 101.373548 30.975251 241.806795 241.806795 0 0 1 64.130577 52.957686 244.441054 244.441054 0 0 1 37.24297 58.044532 241.988468 241.988468 0 0 1-121.35758 320.107868 244.622727 244.622727 0 0 1-100.101836 21.528253z" fill="#5E125C" p-id="9621"></path><path d="M218.038877 813.440965a21.891599 21.891599 0 0 1-15.62388-6.449392L154.453318 758.757385a22.073272 22.073272 0 0 1 31.156924-31.156924L218.038877 760.210769l101.646057-101.55522a22.073272 22.073272 0 1 1 31.156923 31.156923l-117.1791 117.179101a21.528253 21.528253 0 0 1-15.62388 6.449392z" fill="#5E125C" p-id="9622"></path></svg>