<?xml version="1.0" standalone="no"?><!DOCTYPE svg PUBLIC "-//W3C//DTD SVG 1.1//EN" "http://www.w3.org/Graphics/SVG/1.1/DTD/svg11.dtd"><svg t="1591586791151" class="icon" viewBox="0 0 1024 1024" version="1.1" xmlns="http://www.w3.org/2000/svg" p-id="4961" width="64" height="64" xmlns:xlink="http://www.w3.org/1999/xlink"><defs><style type="text/css"></style></defs><path d="M512 0c282.8 0 512 229.2 512 512s-229.2 512-512 512S0 794.8 0 512 229.2 0 512 0z m0 23.3C242.1 23.3 23.3 242.1 23.3 512s218.8 488.7 488.7 488.7 488.7-218.8 488.7-488.7S781.9 23.3 512 23.3z" fill="#1989fa" p-id="4962"></path><path d="M752.8 434.9c0.2 1.2 0.3 2.3 0.3 3.5V514c0 12-10.1 21.8-22.5 21.8-11.9 0-21.7-9-22.5-20.5v-100c0-5.9-2.4-11.6-6.6-15.8-4.3-4.2-10.1-6.6-16.2-6.6h-98.7v-37.3c0-5.9-2.4-11.6-6.6-15.8-4.3-4.2-10.1-6.6-16.2-6.6H427c-6 0-11.8 2.4-16.2 6.6-4.2 4.1-6.6 9.8-6.6 15.8V393h-98.8c-6 0-11.8 2.4-16.2 6.6-4.2 4.1-6.6 9.8-6.6 15.8V639c-0.1 12.3 10.1 22.3 22.8 22.4h237.8c12 0.6 21.3 10.2 21.3 21.8s-9.4 21.2-21.3 21.8h-257c-26.6 0.1-48.2-21.4-48.3-48V401.5c0.1-26.6 21.7-48 48.2-48h80.5v-16c0.1-26.6 21.7-48 48.3-48h160.9c26.5 0 48.1 21.4 48.2 48v16h80.5c26.6-0.1 48.2 21.4 48.3 47.9v33.5zM543.2 577.5c19.9-14.5 31.9-37.5 32.5-62.1v-2c0-44.1-36-79.9-80.5-79.9s-80.5 35.8-80.5 79.9 36 79.7 80.5 79.7c17.3 0 34.1-5.5 48-15.6z m-47.9-176c62.2 0 112.7 50.1 112.6 111.9 0.3 42.9-24.9 82.2-64.8 101.1-15 7-31.3 10.6-47.9 10.6-62.2 0-112.6-50-112.6-111.7s50.5-111.9 112.7-111.9zM447 513.4c0.1-26.6 21.7-48 48.3-48v16c-17.7-0.1-32.1 14.2-32.2 31.9v0.1H447z m256.7 107.8h61.1c11.7 0 21.3 9.3 21.3 20.6v2.4c0 11.4-9.5 20.6-21.3 20.6h-61.1V724c0 11.4-9.6 20.6-21.3 20.6h-2.5c-11.8 0-21.3-9.3-21.3-20.6v-59.2h-61.2c-11.7 0-21.2-9.2-21.3-20.6v-2.4c0-11.3 9.6-20.6 21.3-20.6h61.2v-59.1c0-11.3 9.6-20.6 21.3-20.6h2.5c11.7 0 21.3 9.3 21.3 20.6v59.1z" fill="#1989fa" p-id="4963"></path></svg>