<?xml version="1.0" standalone="no"?><!DOCTYPE svg PUBLIC "-//W3C//DTD SVG 1.1//EN" "http://www.w3.org/Graphics/SVG/1.1/DTD/svg11.dtd"><svg t="1593080995256" class="icon" viewBox="0 0 1024 1024" version="1.1" xmlns="http://www.w3.org/2000/svg" p-id="9220" xmlns:xlink="http://www.w3.org/1999/xlink" width="48" height="48"><defs><style type="text/css"></style></defs><path d="M640.12 901H164c-72.78 0-132-59.21-132-132V255c0-72.79 59.22-132 132-132h696c72.78 0 132 59.21 132 132v309.71a32 32 0 0 1-64 0V255a68.08 68.08 0 0 0-68-68H164a68.08 68.08 0 0 0-68 68v514a68.08 68.08 0 0 0 68 68h476.12a32 32 0 0 1 0 64z" fill="#5aa6ff" p-id="9221"></path><path d="M387.46 407.7m-44.62 0a44.62 44.62 0 1 0 89.24 0 44.62 44.62 0 1 0-89.24 0Z" fill="#5aa6ff" p-id="9222"></path><path d="M205.93 536.99m-69.68 0a69.68 69.68 0 1 0 139.36 0 69.68 69.68 0 1 0-139.36 0Z" fill="#5aa6ff" p-id="9223"></path><path d="M798.02 536.99m-69.68 0a69.68 69.68 0 1 0 139.36 0 69.68 69.68 0 1 0-139.36 0Z" fill="#5aa6ff" p-id="9224"></path><path d="M579.5 407.7m-44.62 0a44.62 44.62 0 1 0 89.24 0 44.62 44.62 0 1 0-89.24 0Z" fill="#5aa6ff" p-id="9225"></path><path d="M944 794.29H733.33a32 32 0 1 1 0-64H944a32 32 0 0 1 0 64z" fill="#5aa6ff" p-id="9226"></path><path d="M838.67 899.62a32 32 0 0 1-32-32V657a32 32 0 0 1 64 0v210.62a32 32 0 0 1-32 32zM485.94 638.67a146.43 146.43 0 0 1-130.88-80.09 32 32 0 0 1 57-29.15 83 83 0 0 0 147.46 0.68 32 32 0 0 1 56.7 29.68 146.62 146.62 0 0 1-130.28 78.88z" fill="#5aa6ff" p-id="9227"></path></svg>