<?xml version="1.0" standalone="no"?><!DOCTYPE svg PUBLIC "-//W3C//DTD SVG 1.1//EN" "http://www.w3.org/Graphics/SVG/1.1/DTD/svg11.dtd"><svg t="1594039933044" class="icon" viewBox="0 0 1024 1024" version="1.1" xmlns="http://www.w3.org/2000/svg" p-id="10743" xmlns:xlink="http://www.w3.org/1999/xlink" width="48" height="48"><defs><style type="text/css"></style></defs><path d="M512.000002 0c-282.294067 0-512 229.705933-512 512s229.665697 512 512 512c57.034185 0 101.726051-44.691866 101.726051-101.746169 0-26.424833-9.807466-50.787583-27.631906-68.612024-10.380825-10.380825-16.094303-24.865697-16.094303-40.76888 0-35.55835 26.807073-62.365422 62.365423-62.365422h98.456896c161.667269 0 293.177839-131.51057 293.177839-293.177839 0-252.127308-229.665697-457.329666-512-457.329666zM71.951593 341.299804q-1.881022 2.112377-3.70169 4.275049 1.730138-4.667348 3.550806-9.284401 0.050295 2.504676 0.150884 5.009352z" fill="#72C1F3" p-id="10744" data-spm-anchor-id="a313x.7781069.0.i0" class=""></path><path d="M512.000002 0c-282.294067 0-512 229.705933-512 512s229.665697 512 512 512c57.034185 0 101.726051-44.691866 101.726051-101.746169 0-26.424833-9.807466-50.787583-27.631906-68.612024-10.380825-10.380825-16.094303-24.865697-16.094303-40.76888 0-35.55835 26.807073-62.365422 62.365423-62.365422h98.456896c161.667269 0 293.177839-131.51057 293.177839-293.177839 0-252.127308-229.665697-457.329666-512-457.329666z m211.941846 704.427505h-97.461061c-56.470884 0-100.720157 44.259332-100.720157 100.740275 0 26.153242 9.706876 50.294695 27.360315 67.928016 10.280236 10.280236 15.93336 24.614224 15.933359 40.366522 0 35.206287-26.535481 61.741768-61.72165 61.741768-258.001729 0-467.91167-209.909941-467.91167-467.911669S249.330925 39.420982 507.332654 39.420982s467.91167 185.607544 467.91167 413.764401c0 138.551827-112.73053 251.282358-251.282358 251.282358z" fill="#1296db" p-id="10745" data-spm-anchor-id="a313x.7781069.0.i1" class="selected"></path><path d="M221.809668 426.931552m-84.947741 0a84.947741 84.947741 0 1 0 169.895481 0 84.947741 84.947741 0 1 0-169.895481 0Z" fill="#F5F8FF" p-id="10746"></path><path d="M368.207467 227.090609m-84.94774 0a84.947741 84.947741 0 1 0 169.895481 0 84.947741 84.947741 0 1 0-169.895481 0Z" fill="#F5F8FF" p-id="10747"></path><path d="M630.796072 215.472534m-84.94774 0a84.947741 84.947741 0 1 0 169.895481 0 84.947741 84.947741 0 1 0-169.895481 0Z" fill="#F5F8FF" p-id="10748"></path><path d="M761.28063 413.96558m-84.94774 0a84.947741 84.947741 0 1 0 169.895481 0 84.947741 84.947741 0 1 0-169.895481 0Z" fill="#F5F8FF" p-id="10749"></path></svg>